<?xml version="1.0" standalone="no"?>
<!DOCTYPE svg PUBLIC "-//W3C//DTD SVG 20010904//EN"
 "http://www.w3.org/TR/2001/REC-SVG-20010904/DTD/svg10.dtd">
<svg version="1.0" xmlns="http://www.w3.org/2000/svg"
 width="960.000000pt" height="951.000000pt" viewBox="0 0 960.000000 951.000000"
 preserveAspectRatio="xMidYMid meet">

<g transform="translate(0.000000,951.000000) scale(0.100000,-0.100000)"
fill="#000000" stroke="none">
<path d="M0 7257 l0 -2254 42 -12 c24 -7 57 -17 73 -22 17 -6 87 -13 156 -16
l127 -6 6 -39 c4 -22 13 -53 21 -69 18 -33 19 -53 4 -43 -8 4 -9 -12 -5 -57 9
-87 7 -201 -4 -214 -5 -6 -13 -33 -17 -60 -5 -31 -14 -51 -23 -53 -16 -3 -109
53 -151 92 -19 16 -44 26 -85 30 -87 11 -103 16 -109 36 -3 10 -12 21 -20 24
-13 5 -15 -281 -15 -2294 l0 -2300 4800 0 4800 0 0 2207 0 2206 -40 -43 c-22
-24 -40 -46 -40 -49 0 -6 -72 -31 -90 -31 -6 0 -8 5 -5 10 4 6 -8 10 -29 10
-24 0 -36 5 -36 14 0 15 -50 26 -127 26 -52 0 -96 -14 -121 -37 -7 -7 -18 -13
-24 -13 -5 0 -31 -23 -58 -51 l-48 -50 -6 27 c-4 14 -7 61 -6 103 0 42 -4 157
-9 256 -6 99 -11 240 -11 313 l0 132 80 0 c50 0 87 -5 96 -12 9 -7 23 -20 33
-28 33 -28 61 -40 91 -40 16 0 30 -4 30 -10 0 -5 7 -10 15 -10 23 0 65 -30 65
-46 0 -8 -5 -14 -11 -14 -8 0 -7 -5 2 -16 10 -13 10 -17 -2 -25 -8 -5 -17 -9
-21 -9 -5 0 -8 -6 -8 -13 0 -7 -9 -18 -20 -25 -24 -15 -28 -83 -6 -101 23 -19
76 -32 70 -17 -9 24 126 76 199 76 l37 0 0 850 c0 540 -4 850 -10 850 -5 0
-25 -14 -44 -31 -25 -22 -41 -29 -56 -24 -14 4 -20 2 -20 -9 0 -8 -13 -17 -31
-21 -19 -4 -33 -15 -36 -26 -3 -10 -13 -19 -23 -19 -10 0 -20 -6 -23 -12 -3
-10 -11 -10 -38 0 -22 8 -35 9 -37 2 -2 -5 -12 -10 -21 -10 -10 0 -29 -8 -42
-18 -38 -28 -70 -41 -124 -50 -38 -6 -50 -12 -49 -25 1 -9 -3 -15 -8 -14 -19
4 -19 -21 -1 -26 15 -4 14 -5 -4 -6 -26 -1 -37 25 -27 64 6 25 4 26 -22 23
-18 -2 -33 -12 -40 -26 -11 -22 -12 -22 -17 -3 -6 24 8 38 43 43 29 4 43 48
15 48 -18 0 -47 -25 -39 -33 13 -13 -56 -17 -77 -5 -55 31 -63 57 -43 131 4
11 0 17 -10 17 -12 0 -15 -13 -13 -75 1 -40 7 -79 13 -85 6 -6 30 -14 54 -18
l44 -7 -74 -25 c-41 -13 -82 -30 -90 -36 -8 -6 -35 -14 -59 -17 -24 -3 -47
-11 -52 -18 -7 -12 -5 38 6 174 3 34 8 87 10 117 27 411 55 728 62 699 3 -11
13 -14 36 -12 32 4 32 4 10 -13 -13 -9 -23 -23 -23 -30 0 -8 -7 -14 -15 -14
-8 0 -15 -4 -15 -10 0 -5 7 -10 15 -10 8 0 15 5 15 10 0 6 7 10 15 10 8 0 19
8 24 18 9 16 17 18 63 11 96 -14 116 -12 121 14 3 15 5 11 6 -13 2 -33 3 -34
12 -11 15 38 19 19 10 -45 -7 -47 -9 -52 -11 -24 l-2 35 -8 -40 c-5 -24 -4
-42 2 -46 6 -4 8 -33 5 -70 -3 -35 -8 -129 -12 -209 -4 -94 -10 -147 -18 -152
-16 -10 5 -30 24 -23 10 4 14 27 15 88 2 89 6 163 20 302 l9 90 6 -55 c4 -38
6 -22 5 55 l-1 109 48 -3 c35 -2 47 1 47 12 0 8 13 30 30 48 16 19 30 37 30
40 0 4 9 9 21 12 12 3 18 10 15 15 -3 6 7 15 24 20 34 12 113 7 118 -8 2 -5
21 -10 42 -10 22 0 40 -5 43 -12 3 -10 9 -10 26 0 11 6 28 12 36 12 8 0 15 5
15 10 0 6 5 10 11 10 6 0 24 9 40 21 l29 20 0 1120 0 1119 -4352 0 c-3117 0
-4349 -3 -4338 -11 12 -9 11 -9 -5 -2 -11 4 -219 9 -462 11 l-443 2 0 -2253z
m9445 2224 c-3 -6 -11 -11 -17 -11 -6 0 -6 6 2 15 14 17 26 13 15 -4z m-8479
-16 c9 -8 11 -15 6 -15 -5 0 -15 7 -22 15 -7 8 -9 15 -6 15 4 0 14 -7 22 -15z
m74 5 c0 -5 -7 -7 -15 -4 -8 4 -15 8 -15 10 0 2 7 4 15 4 8 0 15 -4 15 -10z
m743 -127 c-7 -2 -21 -2 -30 0 -10 3 -4 5 12 5 17 0 24 -2 18 -5z m50 -10 c-7
-2 -19 -2 -25 0 -7 3 -2 5 12 5 14 0 19 -2 13 -5z m-1049 -60 c-5 -5 -12 -12
-15 -16 -3 -5 -9 -2 -12 7 -5 12 0 16 15 16 12 0 17 -3 12 -7z m824 -43 c7
-12 8 -20 2 -20 -5 0 -10 4 -10 9 0 5 -12 14 -27 19 l-28 10 25 1 c15 1 30 -7
38 -19z m154 -27 c-4 -20 -7 -23 -10 -10 -2 9 -11 17 -20 18 -10 1 -7 4 8 9
14 4 26 8 26 9 1 1 -1 -11 -4 -26z m-1042 7 c0 -5 -5 -10 -11 -10 -5 0 -7 5
-4 10 3 6 8 10 11 10 2 0 4 -4 4 -10z m990 -46 c0 -2 -7 -4 -15 -4 -8 0 -15 4
-15 10 0 5 7 7 15 4 8 -4 15 -8 15 -10z m43 -21 c-7 -2 -19 -2 -25 0 -7 3 -2
5 12 5 14 0 19 -2 13 -5z m0 -30 c-7 -2 -19 -2 -25 0 -7 3 -2 5 12 5 14 0 19
-2 13 -5z m-873 -33 c0 -5 -2 -10 -4 -10 -3 0 -8 5 -11 10 -3 6 -1 10 4 10 6
0 11 -4 11 -10z m80 -15 c0 -8 -2 -15 -4 -15 -2 0 -6 7 -10 15 -3 8 -1 15 4
15 6 0 10 -7 10 -15z m5593 -362 c-7 -2 -19 -2 -25 0 -7 3 -2 5 12 5 14 0 19
-2 13 -5z m13 -28 c-16 -17 -36 -20 -36 -6 0 8 17 16 43 20 5 0 2 -6 -7 -14z
m-66 -19 c0 -3 -4 -8 -10 -11 -5 -3 -10 -1 -10 4 0 6 5 11 10 11 6 0 10 -2 10
-4z m-70 -72 c0 -2 -7 -4 -15 -4 -8 0 -15 4 -15 10 0 5 7 7 15 4 8 -4 15 -8
15 -10z m630 -38 c0 -3 -4 -8 -10 -11 -5 -3 -10 -1 -10 4 0 6 5 11 10 11 6 0
10 -2 10 -4z m-580 -16 c0 -5 -18 -10 -40 -10 -22 0 -40 5 -40 10 0 6 18 10
40 10 22 0 40 -4 40 -10z m-4800 -20 c0 -5 -4 -10 -10 -10 -5 0 -10 5 -10 10
0 6 5 10 10 10 6 0 10 -4 10 -10z m4800 -20 c0 -5 -18 -10 -40 -10 -22 0 -40
5 -40 10 0 6 18 10 40 10 22 0 40 -4 40 -10z m220 -10 c0 -5 -12 -10 -27 -10
-22 0 -25 2 -13 10 20 13 40 13 40 0z m70 0 c0 -12 -8 -12 -35 0 -18 8 -17 9
8 9 15 1 27 -3 27 -9z m-2930 -50 l0 -40 40 0 40 0 0 -40 0 -40 80 0 80 0 0
-80 c0 -62 3 -80 14 -80 10 0 16 22 21 80 l7 80 59 0 59 0 0 -34 c0 -36 -12
-46 -56 -46 -23 0 -24 -2 -24 -80 l0 -80 80 0 80 0 0 -40 c0 -29 4 -40 15 -40
11 0 15 11 15 40 0 29 -4 40 -15 40 -11 0 -15 11 -15 40 l0 40 -40 0 -40 0 0
40 0 40 160 0 160 0 0 -40 0 -40 40 0 40 0 0 -40 c0 -33 3 -40 20 -40 17 0 20
7 20 40 l0 40 100 0 100 0 0 40 0 40 40 0 40 0 0 40 0 40 40 0 40 0 0 40 0 40
120 0 120 0 0 -80 0 -80 40 0 40 0 0 -40 0 -40 320 0 320 0 0 40 0 40 -40 0
-40 0 0 40 0 40 120 0 120 0 0 -40 0 -40 53 -1 c28 0 46 -3 40 -6 -9 -3 -13
-28 -13 -73 0 -45 4 -69 13 -72 6 -2 113 -4 237 -3 l225 0 5 -40 c4 -28 10
-41 24 -43 16 -3 18 2 15 40 -2 26 0 45 6 45 6 0 8 -19 6 -44 -2 -34 0 -43 13
-43 9 0 16 -8 16 -19 0 -21 19 -31 56 -31 15 0 24 -6 24 -15 0 -24 72 -20 88
5 7 11 20 20 30 20 13 0 11 -5 -10 -24 -21 -17 -28 -32 -28 -60 0 -22 5 -36
13 -37 10 0 10 -2 0 -6 -7 -2 -13 -20 -13 -39 0 -33 -1 -34 -41 -34 -34 0 -40
-3 -35 -16 11 -29 -19 -62 -53 -59 -18 1 -29 -2 -28 -9 1 -6 -7 -11 -18 -11
-16 0 -21 9 -27 45 -3 25 -7 64 -7 88 -1 30 -5 42 -16 42 -12 0 -15 -13 -16
-57 0 -38 -3 -51 -8 -39 -5 14 -10 16 -15 8 -9 -15 -52 -16 -61 -2 -8 12 -275
11 -275 -2 0 -11 -37 -11 -44 0 -4 8 -24 8 -69 3 -5 -1 -8 -20 -7 -43 5 -92 2
-101 -44 -130 -24 -16 -51 -28 -60 -28 -9 0 -19 -7 -22 -15 -4 -8 -12 -15 -20
-15 -8 0 -14 -10 -14 -25 0 -24 18 -33 34 -18 12 13 117 35 189 40 37 2 67 9
67 14 0 5 -8 9 -17 9 -32 1 26 40 58 40 16 0 29 4 29 9 0 5 17 11 38 14 20 3
52 9 70 13 21 4 32 2 32 -5 0 -6 3 -10 8 -10 4 1 19 1 35 0 25 -1 27 -4 27
-47 l0 -46 -47 6 c-42 6 -46 5 -30 -7 15 -13 15 -16 2 -27 -8 -7 -15 -19 -15
-26 0 -8 -7 -14 -15 -14 -8 0 -15 -4 -15 -9 0 -10 -19 -9 -37 2 -10 6 -13 -3
-12 -35 0 -24 3 -37 6 -30 6 14 43 16 43 2 0 -5 11 -10 25 -10 14 0 25 5 25
10 0 6 -9 10 -20 10 -19 0 -28 24 -12 33 4 3 24 -1 44 -8 30 -10 40 -10 48 0
6 7 26 11 45 9 29 -2 33 -1 22 10 -9 10 -14 11 -19 2 -5 -7 -8 -6 -8 4 0 13
-1 13 -10 0 -7 -10 -10 -11 -10 -2 0 21 44 32 85 21 20 -6 42 -8 48 -5 7 2 4
5 -5 5 -27 1 -10 31 18 31 31 0 74 20 74 35 0 16 73 50 78 36 5 -15 33 -13 56
4 11 8 29 15 41 15 12 0 30 7 41 15 10 8 36 15 57 15 41 0 74 15 95 43 7 9 17
17 23 17 14 0 11 -48 -3 -53 -7 -3 1 -6 19 -6 l32 -1 3 88 c2 65 0 89 -11 96
-10 6 -2 14 29 32 23 13 48 24 54 24 7 0 21 9 31 20 10 11 26 20 35 20 10 0
20 -9 23 -20 9 -34 34 -23 42 17 7 37 28 62 53 63 7 0 10 -5 6 -11 -4 -8 1 -9
17 -3 13 4 30 7 37 7 6 0 12 4 12 9 0 4 7 8 15 8 8 0 15 -7 15 -15 0 -11 -11
-15 -40 -15 l-40 0 0 -130 c0 -133 6 -150 39 -117 8 8 47 12 119 13 78 0 118
5 146 17 21 9 41 17 45 17 3 0 17 9 31 20 15 12 41 20 65 20 27 0 35 3 26 9
-12 7 -12 13 0 40 12 27 19 31 51 31 l38 0 0 -80 c0 -73 2 -80 20 -80 18 0 20
7 20 59 0 102 12 181 26 181 10 0 14 13 14 40 l0 40 -40 0 c-29 0 -40 -4 -40
-15 0 -21 -95 -21 -103 -1 -7 18 24 30 56 21 15 -4 18 -4 8 3 -7 5 -10 15 -6
22 5 8 10 9 18 1 18 -18 27 -12 27 19 0 27 3 30 30 30 16 0 50 5 75 12 38 10
48 10 54 -1 5 -7 17 -11 27 -8 17 4 17 6 -3 12 -13 4 -23 12 -23 17 0 6 -18 7
-42 4 l-43 -6 36 15 c32 14 41 14 80 1 47 -17 49 -16 53 10 2 14 12 19 38 19
30 1 37 -3 46 -27 6 -16 6 -28 1 -28 -5 0 -9 -4 -9 -9 0 -9 104 -6 120 4 6 3
10 1 10 -4 0 -6 -11 -11 -25 -11 -22 0 -25 -4 -25 -40 0 -38 2 -40 30 -40 28
0 30 -2 30 -40 0 -22 -3 -39 -7 -39 -5 1 -90 1 -190 0 l-183 -1 0 -40 0 -40
120 0 120 0 0 -35 0 -35 79 0 80 0 4 38 4 37 1 -42 2 -43 -45 0 c-25 0 -45 -4
-45 -10 0 -5 -9 -10 -20 -10 -11 0 -20 5 -20 10 0 6 -9 10 -20 10 -11 0 -20
-4 -20 -10 0 -5 7 -10 15 -10 8 0 15 -7 15 -15 0 -8 -7 -15 -15 -15 -8 0 -15
-6 -15 -14 0 -10 -13 -16 -37 -18 -37 -3 -38 -4 -38 -41 0 -33 -3 -37 -26 -37
-18 0 -28 -6 -32 -20 -3 -11 -10 -20 -16 -20 -6 0 -11 9 -11 20 0 11 -4 20
-10 20 -5 0 -10 -18 -10 -39 0 -36 -3 -40 -30 -46 -16 -4 -30 -10 -30 -13 0
-4 -18 -16 -40 -26 -22 -11 -40 -23 -40 -28 0 -4 -12 -8 -28 -8 -20 0 -30 -7
-39 -27 -12 -27 -52 -53 -80 -53 -7 0 -13 -4 -13 -10 0 -5 -18 -10 -40 -10
-33 0 -40 -3 -40 -19 0 -36 73 -39 137 -6 15 8 36 15 47 15 15 0 16 -3 6 -15
-7 -8 -16 -13 -20 -10 -4 2 -16 -2 -26 -10 -18 -14 -18 -14 8 -15 15 0 30 5
33 10 8 13 55 13 55 0 0 -5 18 -10 40 -10 33 0 40 -3 40 -20 0 -17 7 -20 40
-20 33 0 40 -3 40 -19 0 -11 7 -21 15 -23 26 -5 -167 -128 -203 -128 -20 0
-52 -33 -52 -55 0 -14 17 -35 53 -64 12 -10 21 -11 30 -3 29 25 174 56 259 57
50 0 57 2 52 17 -4 13 3 18 30 23 19 4 39 4 44 1 5 -3 24 6 42 19 43 32 50 31
51 -2 1 -25 2 -24 8 7 4 19 13 44 20 55 10 17 11 9 7 -50 -3 -38 -10 -153 -16
-255 -6 -102 -15 -237 -21 -300 -6 -63 -12 -135 -14 -160 -10 -143 -19 -211
-26 -216 -5 -3 -9 3 -10 13 0 16 -1 16 -9 -2 -6 -13 -9 -15 -9 -5 -1 13 -3 13
-10 1 -7 -11 -42 -15 -153 -18 -147 -3 -166 -4 -183 -14 -5 -4 -22 -9 -37 -13
-16 -3 -28 -11 -28 -16 0 -6 -13 -10 -30 -10 -16 0 -30 -4 -30 -10 0 -5 -20
-10 -45 -10 -25 0 -68 -9 -97 -20 -29 -11 -68 -20 -85 -20 -33 0 -33 0 -33
-48 l0 -48 34 1 c19 0 38 4 42 8 11 11 164 8 164 -3 0 -5 18 -10 40 -10 29 0
40 4 40 15 0 18 76 22 82 5 2 -6 44 -13 93 -15 50 -2 93 -4 98 -5 10 0 9 -68
-1 -74 -13 -8 -8 -97 6 -123 7 -12 12 -28 12 -36 0 -8 12 -22 26 -32 16 -10
23 -22 20 -31 -10 -25 12 -54 40 -54 21 0 25 -4 22 -22 -4 -30 -45 -35 -99
-14 -28 12 -74 16 -162 16 -91 0 -142 6 -202 21 -44 12 -93 23 -110 25 -16 3
-45 7 -63 10 -17 3 -41 14 -52 26 -18 20 -23 20 -62 9 -44 -14 -87 -38 -78
-45 3 -2 -7 -14 -22 -26 -16 -12 -28 -27 -28 -34 0 -6 -34 -40 -76 -76 l-77
-64 -96 -13 c-53 -8 -183 -17 -289 -22 -125 -5 -197 -12 -205 -20 -20 -20 10
-29 99 -30 71 0 90 -4 127 -25 24 -14 53 -26 65 -26 11 0 23 -4 27 -9 12 -21
95 -24 151 -6 63 20 120 16 178 -12 34 -16 48 -33 26 -33 -5 0 -10 -9 -10 -20
0 -12 -7 -20 -16 -20 -8 0 -29 -13 -46 -30 -27 -27 -35 -30 -97 -30 -37 0 -89
-7 -115 -16 -30 -10 -66 -15 -97 -12 -27 3 -49 1 -49 -3 0 -5 5 -9 10 -9 6 0
10 -5 10 -11 0 -6 -15 -10 -32 -8 -63 4 -78 -1 -90 -26 -7 -15 -17 -24 -25
-21 -9 4 -13 -5 -13 -28 0 -19 6 -36 13 -39 19 -7 -32 -47 -60 -47 -13 0 -24
-6 -24 -15 -1 -8 -2 -19 -3 -24 -1 -4 7 -19 17 -32 10 -13 26 -39 37 -57 19
-31 22 -32 82 -31 60 2 63 0 93 -35 29 -35 33 -37 58 -25 15 7 27 16 27 21 0
14 310 14 319 0 3 -5 28 -12 54 -16 47 -7 48 -7 60 23 9 24 18 31 38 31 30 0
89 -27 89 -41 0 -5 9 -9 20 -9 11 0 23 -7 26 -15 4 -8 12 -15 20 -15 10 0 14
-12 14 -40 0 -22 4 -40 9 -40 5 0 12 -17 16 -39 7 -41 37 -66 70 -59 19 3 26
14 44 63 10 26 16 30 51 30 52 1 56 8 26 38 -14 15 -26 31 -26 37 0 5 -6 10
-14 10 -7 0 -17 8 -20 18 -15 39 -32 62 -45 62 -10 0 -12 9 -7 40 5 31 3 40
-8 40 -10 0 -1 15 22 38 20 21 36 45 34 54 -2 8 11 30 29 48 24 24 29 34 19
40 -21 13 -3 40 26 40 54 0 88 21 131 81 23 32 56 65 74 74 31 16 32 16 63
-14 28 -27 31 -36 28 -73 -5 -46 -21 -76 -32 -59 -10 17 -90 -28 -90 -50 0
-10 -4 -19 -10 -19 -16 0 -12 -76 5 -90 11 -9 25 -10 62 -1 69 17 76 23 64 54
-13 34 -2 34 28 3 25 -27 21 -46 -10 -46 -10 0 -19 -4 -19 -10 0 -16 32 -12
44 6 7 9 18 13 30 8 16 -6 18 -15 11 -78 -3 -39 -17 -120 -30 -181 -13 -60
-38 -191 -55 -290 -18 -99 -36 -184 -41 -189 -5 -6 -18 1 -31 17 -19 21 -33
26 -78 28 -61 2 -130 -9 -130 -21 0 -4 -29 -10 -65 -14 -46 -5 -71 -13 -89
-29 -13 -12 -31 -28 -40 -35 -12 -10 -14 -17 -6 -33 9 -16 7 -21 -14 -30 -30
-14 -35 -25 -43 -101 -6 -58 -6 -58 -37 -56 -17 1 -47 -4 -66 -10 -19 -6 -46
-14 -60 -16 -37 -8 -64 -64 -56 -117 9 -59 71 -121 120 -121 19 0 39 3 45 6 6
4 13 -5 17 -19 6 -23 0 -33 -41 -68 l-48 -42 -86 -1 c-89 0 -171 -19 -171 -38
0 -7 -3 -8 -8 -1 -4 6 -27 26 -51 45 -39 30 -49 33 -95 31 -100 -7 -157 -4
-168 7 -38 38 -138 -13 -138 -68 0 -38 -13 -45 -85 -43 -46 1 -66 -4 -90 -20
-47 -33 -65 -58 -65 -89 0 -16 -6 -35 -12 -41 -24 -22 -93 -55 -129 -62 -39
-7 -52 2 -63 47 -5 22 -12 28 -34 29 l-27 1 30 10 c17 5 39 10 50 11 11 1 20
8 20 16 0 13 -14 15 -170 23 -5 1 -42 -2 -82 -6 l-72 -8 -6 36 c-4 20 -22 56
-41 80 -19 25 -34 49 -34 54 0 5 -16 30 -35 55 -19 25 -35 51 -35 56 0 6 -4
11 -8 11 -16 0 -32 50 -26 80 10 49 -3 76 -58 120 -29 23 -53 49 -54 58 -1 10
-4 26 -7 37 -5 16 1 24 33 39 l40 19 30 -28 c20 -19 28 -35 24 -47 -3 -10 -1
-18 5 -18 19 0 12 34 -15 73 -23 34 -24 40 -11 55 25 29 47 80 47 110 0 65 12
93 46 110 45 21 44 36 -1 18 -19 -8 -35 -11 -35 -7 0 11 16 24 65 52 137 78
141 81 110 75 -17 -2 -60 -22 -95 -44 -36 -22 -67 -38 -69 -36 -8 8 34 112 56
135 27 29 103 198 103 229 0 37 -28 39 -117 8 l-84 -29 -29 25 c-16 13 -56 36
-87 51 -32 15 -71 33 -87 41 -16 8 -61 17 -100 21 -66 6 -96 19 -96 41 0 5 -9
17 -20 27 -11 10 -20 22 -20 26 0 4 -10 19 -22 32 -13 14 -37 41 -55 61 -24
28 -39 36 -65 36 -18 0 -38 -4 -44 -8 -36 -23 -94 -193 -94 -275 0 -22 -8 -49
-19 -62 l-18 -24 -36 35 c-55 51 -131 84 -194 84 -48 0 -53 2 -54 23 -2 69
-14 89 -73 119 -47 24 -108 83 -131 127 -8 17 -20 31 -25 31 -5 0 -14 17 -19
38 -15 50 -14 55 7 47 57 -25 150 -55 170 -55 41 0 107 40 172 105 35 36 67
65 71 65 17 0 69 53 69 69 0 10 23 42 50 72 28 30 50 59 50 65 0 7 -13 26 -29
43 -38 40 -55 90 -42 122 l10 24 0 -24 c1 -30 28 -61 53 -61 24 0 23 17 -3 30
-13 7 -19 19 -17 33 2 17 9 21 30 19 26 -3 78 18 105 42 48 42 47 42 40 5 -3
-19 -8 -43 -12 -54 -5 -14 -4 -16 3 -7 7 11 10 11 15 -2 5 -11 -3 -17 -29 -22
-36 -7 -43 -31 -8 -27 10 1 39 4 64 7 42 5 43 5 13 -4 -42 -13 -42 -20 1 -20
22 0 42 9 60 25 15 14 32 22 38 19 6 -4 8 -2 5 3 -4 6 2 30 12 54 10 24 21 52
24 62 6 16 8 16 29 -5 13 -13 22 -26 21 -30 -2 -4 4 -5 12 -2 8 4 15 1 15 -5
0 -17 37 -13 44 4 3 8 2 14 -2 13 -17 -3 -43 17 -63 48 -26 43 -20 90 18 128
37 37 66 42 108 17 37 -22 85 -28 85 -12 0 5 -14 12 -30 16 -17 4 -28 10 -25
15 3 4 -3 7 -12 6 -10 0 -18 4 -19 9 0 6 -6 24 -13 40 -16 39 -31 134 -31 208
l0 58 62 -42 c57 -39 68 -43 138 -46 68 -4 78 -2 104 20 40 32 26 56 -15 26
-16 -11 -36 -18 -44 -15 -7 2 -15 0 -17 -6 -6 -16 -103 0 -125 21 -11 10 -30
24 -42 31 -19 10 -21 14 -10 22 10 7 9 8 -6 4 -14 -4 -35 7 -70 39 -29 26 -44
45 -34 45 8 0 20 -5 27 -12 8 -8 12 -8 12 -1 0 6 -14 16 -31 22 -16 6 -29 16
-28 23 1 7 -3 33 -9 58 -40 150 -47 166 -84 205 -22 22 -36 45 -33 53 7 19
-16 47 -25 32 -8 -14 -18 -9 -121 61 -38 25 -65 50 -61 54 4 5 1 5 -5 1 -8 -4
-36 8 -66 28 -30 20 -59 36 -66 36 -6 0 -33 21 -59 46 -26 26 -67 60 -92 77
-25 17 -46 34 -48 38 -1 3 -30 17 -62 30 -62 24 -73 35 -43 41 10 2 -27 4 -82
5 -55 1 -117 -3 -138 -8 -23 -6 -43 -7 -50 -1 -7 5 -23 5 -37 1 -24 -7 -24 -7
5 -9 l30 -1 -35 -14 c-19 -7 -46 -17 -60 -23 -14 -5 -28 -9 -31 -8 -4 0 -16
-8 -28 -18 -33 -30 -38 -9 -10 42 20 39 37 53 89 79 36 18 61 33 55 34 -39 5
-84 5 -76 0 5 -4 -3 -12 -19 -19 -39 -17 -120 -90 -120 -108 0 -16 -29 -12
-89 12 -74 31 -224 7 -291 -46 -19 -15 -45 -30 -58 -34 -12 -4 -22 -14 -22
-22 0 -8 -7 -14 -16 -14 -8 0 -13 -4 -10 -9 5 -8 -13 -18 -68 -35 -30 -10 -10
-19 27 -12 19 3 47 20 63 36 30 31 49 37 59 20 3 -5 -11 -18 -32 -27 -21 -10
-42 -24 -46 -30 -4 -7 -17 -13 -28 -13 -11 0 -18 -4 -15 -9 11 -17 -50 -82
-167 -181 -36 -30 -73 -69 -83 -87 -18 -31 -17 -33 6 -82 13 -28 27 -51 31
-51 16 0 15 -55 -1 -107 -18 -58 -40 -83 -73 -83 -10 0 -16 -4 -13 -9 5 -8
-43 -31 -65 -31 -5 0 -17 10 -28 22 -19 19 -21 20 -27 4 -4 -12 1 -23 17 -34
23 -16 112 -47 136 -47 6 0 30 -17 53 -37 23 -21 48 -38 56 -38 19 0 17 -27
-4 -69 -22 -45 -46 -60 -71 -44 -18 11 -31 8 -31 -8 0 -4 23 -12 50 -19 52
-12 80 -34 39 -29 -37 4 -90 -11 -82 -24 4 -6 0 -8 -10 -4 -11 4 -17 1 -17 -8
0 -7 -8 -16 -18 -19 -11 -4 -29 -18 -42 -31 l-24 -26 -13 23 -12 23 -1 -22 c0
-12 8 -27 18 -32 14 -9 15 -12 2 -20 -17 -12 -30 -5 -30 15 0 8 -4 14 -10 14
-5 0 -10 5 -10 11 0 14 -36 46 -59 54 -15 4 -17 21 -17 118 1 116 -3 129 -50
190 -12 15 -29 27 -38 27 -9 0 -16 6 -16 13 0 6 -14 20 -31 29 -17 10 -27 22
-24 28 3 5 -1 10 -9 10 -9 0 -16 5 -16 10 0 24 -42 54 -82 59 -42 6 -43 7 -51
54 -5 26 -13 47 -18 47 -5 0 -9 6 -9 13 -1 6 -21 21 -45 33 -24 11 -42 17 -39
12 3 -4 -5 -8 -19 -8 -13 0 -33 -9 -45 -20 -12 -11 -25 -20 -31 -20 -5 0 -11
-3 -13 -7 -1 -5 -25 -19 -53 -32 -27 -13 -57 -32 -65 -42 -12 -15 -32 -19
-102 -20 -71 -2 -85 -5 -76 -16 8 -10 6 -13 -9 -13 -10 0 -23 4 -28 9 -9 8
-93 18 -172 20 -15 1 -23 8 -25 24 -4 33 -32 27 -39 -8 -5 -25 -7 -27 -14 -12
-4 9 -5 26 -2 37 3 11 -3 29 -15 42 -11 13 -26 35 -34 49 -12 24 -12 27 6 32
12 3 20 14 20 26 0 12 5 21 10 21 6 0 10 6 10 13 0 7 13 27 28 44 30 32 41 95
22 118 -5 6 -5 16 0 25 7 10 10 11 10 3 0 -7 7 -13 15 -13 11 0 15 11 15 40 0
22 -4 40 -10 40 -5 0 -10 18 -10 40 0 22 -3 39 -7 39 -41 -7 -60 18 -23 28 25
7 26 19 1 26 -15 4 -20 16 -22 56 l-4 51 63 0 c54 0 62 2 62 19 0 15 9 20 45
23 25 2 50 -1 56 -7 6 -6 17 -5 30 3 12 8 22 12 22 10 20 -40 26 -43 98 -49
74 -7 149 -27 149 -41 0 -18 126 -8 180 14 44 18 80 23 178 26 l122 3 0 -35
c0 -21 -5 -36 -12 -36 -6 0 -8 -3 -5 -7 11 -11 130 -3 188 12 64 17 69 18 69
6 0 -5 -10 -12 -22 -14 -13 -3 4 -2 37 1 32 3 64 9 70 13 50 40 69 61 58 66
-18 7 -16 21 5 26 9 3 -3 6 -28 7 -85 4 -3 18 112 19 59 1 110 5 113 11 3 6 1
10 -5 10 -6 0 -23 11 -38 26 -15 14 -39 28 -54 31 -16 3 -28 9 -28 12 0 4 -21
7 -47 7 l-48 -1 -3 43 c-3 34 -7 42 -23 42 -16 0 -19 7 -19 40 l0 40 -40 0
c-29 0 -40 -4 -40 -15 0 -8 -4 -15 -9 -15 -5 0 -14 7 -21 15 -7 8 -19 15 -26
15 -10 0 -14 13 -14 40 0 36 -2 40 -25 40 -22 0 -25 4 -25 40 0 33 -3 40 -20
40 -15 0 -20 -7 -20 -27 l-1 -28 -15 28 c-10 18 -23 27 -39 27 -15 0 -25 6
-25 15 0 8 -11 26 -25 40 -22 21 -35 25 -80 25 -48 0 -55 2 -55 20 0 16 -7 20
-35 20 -35 0 -44 8 -49 47 -2 15 -13 18 -67 19 -72 0 -97 -5 -79 -16 6 -4 -13
-7 -42 -7 -34 0 -41 1 -19 4 19 3 43 10 55 17 12 7 47 12 79 12 32 -1 60 1 62
4 2 3 -28 6 -67 5 -63 -1 -72 1 -85 22 -9 13 -12 27 -8 31 4 4 10 1 12 -5 5
-14 53 -18 53 -5 0 5 7 9 15 9 8 0 15 -4 15 -9 0 -4 18 -8 40 -8 l40 0 0 40 0
40 43 2 c23 1 59 0 80 -1 l37 -2 0 120 0 120 -27 3 c-16 2 92 1 240 0 l267 -4
0 81 0 81 -90 0 -90 0 0 -40 c0 -33 -3 -40 -20 -40 -17 0 -20 7 -20 40 0 22
-4 40 -10 40 -5 0 -10 18 -10 40 l0 40 46 0 c25 0 43 -4 40 -9 -8 -13 12 -17
82 -17 66 1 87 19 27 24 -34 3 -35 5 -35 43 0 39 0 39 40 39 l40 0 0 -40z
m1120 0 l0 -40 -40 0 -40 0 0 40 0 40 40 0 40 0 0 -40z m1600 30 c0 -5 -2 -10
-4 -10 -3 0 -8 5 -11 10 -3 6 -1 10 4 10 6 0 11 -4 11 -10z m-30 -51 c0 -18
-2 -19 -15 -9 -15 12 -12 30 6 30 5 0 9 -10 9 -21z m-67 4 c-13 -2 -33 -2 -45
0 -13 2 -3 4 22 4 25 0 35 -2 23 -4z m2981 -29 c8 -21 -1 -34 -22 -33 -15 1
-15 2 1 6 21 6 23 23 1 23 -8 0 -12 5 -9 10 9 15 22 12 29 -6z m-6804 -34 c0
-33 -3 -40 -20 -40 -17 0 -20 7 -20 40 0 33 3 40 20 40 17 0 20 -7 20 -40z
m180 9 c0 -18 -18 -9 -23 12 -4 16 -3 18 9 8 8 -6 14 -15 14 -20z m220 -8 c0
-33 4 -40 23 -44 12 -3 -4 -2 -36 1 -43 4 -61 1 -67 -8 -5 -8 -6 4 -3 28 4 28
2 42 -6 42 -6 0 -11 5 -11 10 0 6 23 10 50 10 l50 0 0 -39z m1520 -1 l0 -40
-40 0 -40 0 0 40 0 40 40 0 40 0 0 -40z m2400 -29 c0 -64 1 -69 20 -64 30 8
25 -20 -7 -34 -32 -16 -63 -17 -63 -3 0 6 -31 10 -74 10 l-74 0 -4 80 -3 80
103 0 102 0 0 -69z m-4022 31 c2 -7 -6 -12 -17 -12 -21 0 -27 11 -14 24 9 9
26 2 31 -12z m-58 -2 c0 -5 -4 -10 -10 -10 -5 0 -10 5 -10 10 0 6 5 10 10 10
6 0 10 -4 10 -10z m6420 -3 c-27 -15 -36 -14 -25 2 3 6 16 11 28 11 21 0 21
-1 -3 -13z m-310 -12 c0 -2 -12 -11 -27 -19 -16 -8 -22 -15 -15 -16 17 0 15
-38 -2 -56 -8 -8 -22 -14 -31 -14 -21 0 -48 27 -36 35 5 3 12 1 16 -5 3 -5 15
-10 26 -10 20 0 27 34 9 45 -6 4 -1 14 12 25 21 18 48 26 48 15z m395 -5 c-3
-5 -10 -10 -16 -10 -5 0 -9 5 -9 10 0 6 7 10 16 10 8 0 12 -4 9 -10z m-7225
-10 c0 -5 -4 -10 -10 -10 -5 0 -10 5 -10 10 0 6 5 10 10 10 6 0 10 -4 10 -10z
m680 -10 c0 -5 -9 -10 -21 -10 -11 0 -17 5 -14 10 3 6 13 10 21 10 8 0 14 -4
14 -10z m-134 -16 c18 -14 18 -15 -6 -8 -31 8 -50 24 -29 24 8 0 24 -7 35 -16z
m592 5 c-2 -6 -7 -10 -11 -10 -4 1 -14 1 -23 1 -8 0 -12 5 -9 10 8 13 48 13
43 -1z m70 -5 c-9 -10 -21 -13 -29 -8 -9 5 -8 9 7 15 31 12 39 10 22 -7z m58
-10 c-21 -15 -56 -19 -56 -6 0 9 62 30 70 24 3 -2 -4 -10 -14 -18z m174 -14
l0 -40 -40 0 -40 0 0 40 0 40 40 0 40 0 0 -40z m3397 34 c-3 -3 -12 -4 -19 -1
-8 3 -5 6 6 6 11 1 17 -2 13 -5z m-3877 -14 c0 -5 -7 -10 -15 -10 -8 0 -15 5
-15 10 0 6 7 10 15 10 8 0 15 -4 15 -10z m-458 -15 c0 -5 -5 -11 -11 -13 -6
-2 -11 4 -11 13 0 9 5 15 11 13 6 -2 11 -8 11 -13z m222 0 c-7 -17 -20 -20
-28 -6 -7 10 3 21 20 21 8 0 11 -6 8 -15z m56 -5 c0 -13 -11 -13 -30 0 -12 8
-11 10 8 10 12 0 22 -4 22 -10z m-220 -10 c0 -5 -7 -10 -16 -10 -8 0 -12 5 -9
10 3 6 10 10 16 10 5 0 9 -4 9 -10z m560 -2 c0 -10 -188 -8 -220 2 -15 4 26 7
97 6 68 0 123 -4 123 -8z m-607 -25 c-7 -2 -19 -2 -25 0 -7 3 -2 5 12 5 14 0
19 -2 13 -5z m245 -9 c-12 -12 -24 -15 -45 -9 -26 7 -26 8 -8 15 11 5 31 9 45
9 22 1 23 0 8 -15z m102 -14 c38 -38 15 -43 -27 -5 -22 19 -24 24 -10 25 9 0
26 -9 37 -20z m-355 -10 c-3 -5 -10 -10 -16 -10 -5 0 -9 5 -9 10 0 6 7 10 16
10 8 0 12 -4 9 -10z m65 0 c12 -7 10 -12 -9 -29 -13 -12 -31 -21 -40 -21 -13
1 -13 3 3 15 11 8 23 15 28 15 15 0 8 19 -9 23 -13 3 -14 5 -3 6 8 0 22 -3 30
-9z m230 -10 c0 -21 -15 -27 -25 -10 -7 12 2 30 16 30 5 0 9 -9 9 -20z m3948
8 c-6 -18 -28 -21 -28 -4 0 9 7 16 16 16 9 0 14 -5 12 -12z m-4078 -8 c0 -5
-11 -10 -25 -10 -14 0 -25 5 -25 10 0 6 11 10 25 10 14 0 25 -4 25 -10z m6050
-20 c0 -13 -7 -20 -20 -20 -11 0 -20 5 -20 10 0 6 7 10 15 10 8 0 15 5 15 10
0 6 2 10 5 10 3 0 5 -9 5 -20z m370 -5 c0 -10 -10 -15 -27 -15 -27 1 -27 1 -9
15 25 19 36 19 36 0z m-6345 -5 c4 -6 -7 -10 -27 -9 -27 0 -30 2 -13 9 27 12
33 12 40 0z m248 -17 c-7 -2 -19 -2 -25 0 -7 3 -2 5 12 5 14 0 19 -2 13 -5z
m5644 -30 c-3 -10 -5 -4 -5 12 0 17 2 24 5 18 2 -7 2 -21 0 -30z m-226 1 c12
-14 11 -16 -5 -13 -11 2 -21 10 -24 17 -5 17 13 15 29 -4z m230 -44 c15 0 19
-7 19 -36 0 -19 -7 -42 -15 -51 -14 -14 -15 -13 -10 10 4 14 2 34 -4 44 -8 15
-10 10 -11 -27 0 -25 -5 -52 -11 -60 -8 -11 -9 -5 -5 25 3 22 7 67 7 100 1 35
4 47 6 28 3 -25 9 -33 24 -33z m-63 -52 c2 -46 0 -99 -5 -118 l-10 -35 -12 58
c-7 32 -10 61 -7 64 3 4 6 -1 6 -10 0 -9 3 -17 8 -17 4 0 8 25 10 55 3 46 1
54 -12 49 -18 -7 -22 -34 -6 -34 6 0 10 -7 10 -16 0 -9 -6 -14 -12 -12 -17 6
-22 72 -8 99 20 36 33 6 38 -83z m-5461 60 c-3 -7 -5 -2 -5 12 0 14 2 19 5 13
2 -7 2 -19 0 -25z m5383 -9 c0 -11 -4 -18 -10 -14 -5 3 -7 12 -3 20 7 21 13
19 13 -6z m293 -6 c-7 -2 -13 -20 -13 -39 0 -34 0 -34 -45 -34 -44 0 -45 0
-45 33 0 19 3 37 7 40 3 4 29 7 57 6 28 0 45 -3 39 -6z m197 0 c-8 -3 -21 -11
-29 -17 -8 -6 -46 -11 -84 -11 -54 0 -71 -3 -74 -15 -3 -9 -1 -11 4 -5 9 12
132 13 151 2 29 -19 6 -27 -78 -27 -89 0 -90 0 -90 25 0 28 -4 27 93 29 41 1
71 6 70 12 -1 5 10 10 25 11 15 1 20 -1 12 -4z m-484 -64 c-3 -16 -1 -29 4
-29 14 0 12 -56 -2 -68 -18 -14 -39 10 -27 29 7 11 9 11 9 -3 0 -10 5 -18 10
-18 15 0 12 28 -6 55 -13 20 -14 25 -3 25 11 0 11 2 1 8 -7 5 -10 16 -6 25 10
27 27 7 20 -24z m-1033 -46 c-7 -2 -19 -2 -25 0 -7 3 -2 5 12 5 14 0 19 -2 13
-5z m397 -2 c0 -11 -48 -24 -61 -16 -5 4 -7 11 -4 16 8 12 65 12 65 0z m757
-31 c-4 -17 -2 -30 3 -30 13 0 13 -67 0 -75 -6 -4 -7 6 -4 25 5 20 3 30 -6 30
-7 0 -10 -7 -6 -15 7 -18 -3 -45 -16 -45 -11 0 -3 70 14 113 14 36 22 35 15
-3z m-1267 -20 c0 -5 -2 -10 -4 -10 -3 0 -8 5 -11 10 -3 6 -1 10 4 10 6 0 11
-4 11 -10z m267 4 c-3 -3 -12 -4 -19 -1 -8 3 -5 6 6 6 11 1 17 -2 13 -5z m937
-134 c-2 -19 -4 -52 -5 -73 -3 -37 -3 -37 -37 -31 -24 5 -37 2 -43 -7 -6 -11
-11 -11 -21 -1 -9 9 -9 12 5 12 9 0 17 5 17 11 0 7 10 9 25 7 14 -3 23 -1 22
6 -1 6 3 10 8 9 13 -2 18 119 5 127 -5 3 -12 22 -16 40 -5 32 -4 31 18 -15 15
-31 24 -64 22 -85z m-886 90 c-2 -6 -8 -6 -18 0 -13 9 -13 11 0 20 15 10 25 0
18 -20z m809 -12 c-3 -7 -5 -2 -5 12 0 14 2 19 5 13 2 -7 2 -19 0 -25z m33 -3
c0 -8 -4 -15 -10 -15 -5 0 -10 7 -10 15 0 8 5 15 10 15 6 0 10 -7 10 -15z
m-890 -9 c0 -2 -9 -6 -20 -9 -11 -3 -18 -1 -14 4 5 9 34 13 34 5z m-90 -10 c0
-3 -4 -8 -10 -11 -5 -3 -10 -1 -10 4 0 6 5 11 10 11 6 0 10 -2 10 -4z m30 -36
c0 -5 -2 -10 -4 -10 -3 0 -8 5 -11 10 -3 6 -1 10 4 10 6 0 11 -4 11 -10z
m1040 -20 c0 -11 6 -19 12 -17 7 1 13 -7 14 -18 l1 -20 -5 20 c-5 18 -6 18
-13 -5 -7 -24 -7 -24 -8 -2 -1 12 -5 22 -11 22 -5 0 -10 9 -10 20 0 11 5 20
10 20 6 0 10 -9 10 -20z m-1070 -10 c0 -11 -48 -25 -57 -16 -4 3 3 6 15 6 12
0 22 5 22 10 0 6 5 10 10 10 6 0 10 -4 10 -10z m-1300 -40 c0 -5 -4 -10 -10
-10 -5 0 -10 5 -10 10 0 6 5 10 10 10 6 0 10 -4 10 -10z m2357 -37 c-3 -10 -5
-2 -5 17 0 19 2 27 5 18 2 -10 2 -26 0 -35z m-5557 27 c0 -5 -18 -10 -40 -10
-22 0 -40 5 -40 10 0 6 18 10 40 10 22 0 40 -4 40 -10z m3145 -30 c3 -5 -1
-10 -9 -10 -9 0 -16 -5 -16 -11 0 -5 -4 -7 -10 -4 -6 4 -5 11 3 20 14 17 24
18 32 5z m375 -39 c0 -5 -10 -11 -22 -14 -13 -2 -31 -8 -40 -12 -10 -4 -18 -3
-18 2 0 5 15 14 33 20 44 14 47 14 47 4z m1839 -7 c2 -2 -14 -4 -37 -4 -23 0
-42 -4 -42 -10 0 -13 -21 -13 -40 0 -13 9 -13 11 -1 19 13 9 109 4 120 -5z
m-4959 -161 c0 -26 -1 -26 -17 -10 -16 16 -16 19 -3 27 20 13 20 13 20 -17z
m3050 -53 c0 -5 -6 -10 -14 -10 -8 0 -18 5 -21 10 -3 6 3 10 14 10 12 0 21 -4
21 -10z m-3075 -270 c4 -6 -5 -10 -20 -10 -15 0 -24 4 -20 10 3 6 12 10 20 10
8 0 17 -4 20 -10z m5422 -32 c-3 -8 -6 -5 -6 6 -1 11 2 17 5 13 3 -3 4 -12 1
-19z m-3979 -63 c88 -17 146 -38 158 -57 5 -8 2 -9 -12 -3 -10 4 -27 8 -36 9
-9 0 -15 3 -12 7 5 9 -31 19 -96 26 -30 3 -58 10 -61 16 -4 5 -22 8 -40 5 -19
-3 -43 -2 -54 3 -36 14 67 10 153 -6z m-562 -32 l39 -17 -100 -7 c-89 -7 -132
-16 -199 -44 -14 -6 -17 -5 -12 3 5 8 2 10 -8 6 -25 -9 -19 6 12 32 25 22 51
34 107 48 34 8 120 -3 161 -21z m621 -9 c-3 -3 -12 -4 -19 -1 -8 3 -5 6 6 6
11 1 17 -2 13 -5z m-2647 -24 c0 -5 -7 -10 -15 -10 -8 0 -15 5 -15 10 0 6 7
10 15 10 8 0 15 -4 15 -10z m2829 -51 c3 -10 1 -10 -10 -1 -8 7 -25 21 -39 33
l-25 21 35 -21 c19 -11 36 -25 39 -32z m-1039 -3 c0 -3 -28 -21 -62 -42 -35
-20 -74 -47 -87 -58 l-24 -21 19 26 c23 32 154 112 154 95z m1244 -198 c58
-58 96 -107 96 -124 0 -4 -13 7 -30 24 -16 18 -30 36 -30 42 0 5 -6 10 -12 11
-17 2 -114 109 -99 109 6 0 40 -28 75 -62z m89 -42 c15 -14 23 -27 19 -30 -5
-3 -19 8 -31 24 -26 36 -23 38 12 6z m167 -26 c0 -5 -4 -10 -10 -10 -5 0 -10
5 -10 10 0 6 5 10 10 10 6 0 10 -4 10 -10z m50 -122 c27 -56 10 -45 -32 20
-21 31 -45 68 -54 82 -10 14 2 5 25 -20 23 -25 50 -62 61 -82z m-154 91 c16
-17 16 -22 4 -30 -11 -7 -8 -8 10 -4 20 4 30 -2 50 -31 14 -19 31 -41 37 -49
14 -15 7 -45 -9 -45 -6 0 -8 7 -4 15 8 22 -2 18 -15 -6 -6 -13 -7 -19 -1 -15
6 3 13 0 16 -6 5 -10 7 -10 12 -1 3 7 13 9 22 6 14 -4 15 -3 2 6 -8 5 -12 12
-9 16 11 11 37 -31 53 -84 9 -30 14 -56 12 -58 -7 -8 -176 182 -172 194 3 6
-5 13 -16 16 -11 3 -17 10 -14 16 4 6 0 23 -8 39 -23 44 -3 57 30 21z m-2958
-296 c2 -9 -7 -13 -27 -13 -30 0 -39 9 -24 24 11 10 46 3 51 -11z m-441 -89
c-3 -3 -12 -4 -19 -1 -8 3 -5 6 6 6 11 1 17 -2 13 -5z m-11 -32 c-21 -2 -42 0
-47 5 -4 4 13 6 39 3 l47 -5 -39 -3z m6781 -69 c-2 -16 -4 -3 -4 27 0 30 2 43
4 28 2 -16 2 -40 0 -55z m-8827 -41 c0 -9 8 -22 18 -28 18 -11 157 -12 168 -1
7 6 39 -10 62 -30 7 -7 17 -13 21 -13 4 0 14 -11 21 -25 7 -14 19 -25 25 -25
8 0 10 -10 7 -27 -3 -18 1 -30 13 -40 17 -12 17 -13 2 -13 -9 0 -19 1 -21 3
-2 1 -12 -5 -22 -13 -41 -34 -72 -44 -100 -31 -21 9 -24 14 -14 26 10 12 9 15
-4 15 -9 0 -16 -8 -16 -20 0 -27 -30 -26 -37 1 -5 17 -11 20 -44 15 -22 -3
-57 -9 -78 -12 -23 -3 -42 -1 -46 5 -3 6 -17 11 -30 11 -23 0 -24 3 -19 48 3
26 6 62 7 80 1 18 7 32 15 32 6 0 12 5 12 10 0 6 -4 10 -10 10 -5 0 -10 7 -10
15 0 17 16 20 25 5 10 -15 35 -12 35 5 0 8 5 15 10 15 6 0 10 -8 10 -18z m80
-7 c0 -8 -9 -15 -20 -15 -20 0 -26 11 -13 23 12 13 33 7 33 -8z m80 5 c0 -5
-8 -10 -17 -10 -15 0 -16 2 -3 10 19 12 20 12 20 0z m243 -152 c-2 -5 -3 -12
-3 -18 0 -5 -11 -9 -25 -8 -36 3 -34 35 3 34 15 -1 26 -4 25 -8z m397 3 c0 -6
-27 -9 -60 -9 -33 0 -63 -2 -67 -6 -3 -3 11 -6 33 -7 21 0 48 -4 59 -8 25 -10
45 -3 45 15 0 19 24 18 40 -2 11 -13 10 -16 -11 -22 -22 -6 -22 -7 11 -14 26
-5 19 -6 -25 -4 -33 2 -53 1 -44 -1 21 -5 33 -43 14 -43 -8 0 -20 7 -29 15
-16 17 -46 20 -46 6 0 -6 -12 -6 -30 0 -32 12 -38 24 -17 32 6 3 1 6 -13 6
-91 4 -20 50 78 51 34 0 62 -4 62 -9z m-337 -14 c3 -8 1 -20 -4 -28 -6 -10 -9
-7 -9 14 0 29 5 35 13 14z m-37 -34 c-10 -10 -19 5 -10 18 6 11 8 11 12 0 2
-7 1 -15 -2 -18z m134 23 c0 -2 -11 -6 -25 -8 -14 -3 -25 -1 -25 3 0 5 11 9
25 9 14 0 25 -2 25 -4z m27 -22 c-3 -3 -12 -4 -19 -1 -8 3 -5 6 6 6 11 1 17
-2 13 -5z m53 -14 c0 -5 -2 -10 -4 -10 -3 0 -8 5 -11 10 -3 6 -1 10 4 10 6 0
11 -4 11 -10z m3101 -1 c19 -7 41 -18 49 -25 12 -12 12 -14 -5 -15 -58 -3
-169 26 -159 42 7 13 74 11 115 -2z m-351 -89 c11 -7 7 -10 -17 -10 -17 0 -35
5 -38 10 -8 13 35 13 55 0z m-157 -112 c46 -8 57 -14 57 -30 0 -11 -4 -16 -11
-12 -8 4 -9 0 -4 -15 7 -24 0 -26 -35 -6 -40 23 -109 19 -155 -9 -36 -22 -42
-23 -67 -10 -15 8 -33 14 -41 14 -17 0 -30 41 -18 53 36 36 135 42 274 15z
m-2311 -75 c6 14 20 17 73 17 51 0 65 3 65 15 0 8 7 15 15 15 8 0 15 -6 15
-13 0 -7 14 -18 30 -24 42 -16 37 -27 -17 -44 -36 -10 -49 -20 -51 -35 -3 -20
1 -21 55 -20 57 1 153 -21 153 -36 0 -3 9 -10 20 -13 22 -7 28 -37 8 -34 -27
3 -92 -3 -80 -8 6 -2 12 -11 12 -19 0 -8 14 -21 30 -28 31 -13 30 -26 -2 -26
-10 0 -18 -5 -18 -10 0 -6 -8 -10 -17 -8 -14 2 -17 -3 -15 -19 2 -13 -1 -23
-6 -23 -6 0 -15 -13 -20 -30 -7 -20 -20 -31 -39 -36 -33 -8 -86 -33 -93 -45
-3 -5 -39 -15 -80 -24 -41 -9 -76 -18 -79 -20 -20 -20 100 -27 134 -7 14 7 36
3 86 -14 37 -13 85 -26 108 -30 23 -4 41 -11 41 -17 0 -5 7 -4 15 3 13 10 15
9 15 -9 0 -11 -5 -21 -11 -21 -6 0 -8 -8 -4 -20 3 -10 1 -47 -6 -80 -8 -43 -9
-64 -1 -72 7 -7 12 7 17 48 4 33 12 64 17 71 5 7 7 17 3 23 -12 20 4 61 23 58
9 -2 20 -7 23 -11 10 -13 79 -27 140 -27 54 0 96 19 121 54 3 5 52 7 120 3
125 -8 138 -3 138 45 0 21 -8 33 -32 48 -18 11 -40 20 -48 20 -9 0 -33 9 -54
20 -21 10 -58 22 -82 26 -24 3 -44 10 -44 14 0 5 -14 11 -30 15 -17 4 -35 15
-40 26 -9 17 -7 19 17 19 15 0 41 7 57 15 15 8 33 15 39 15 33 0 50 89 23 125
-22 30 4 75 43 75 12 0 21 4 21 9 0 5 27 12 60 16 32 4 64 13 71 21 14 17 45
18 55 3 3 -6 0 -15 -7 -20 -8 -5 -9 -9 -4 -9 6 0 16 -23 23 -52 15 -66 34 -94
69 -103 52 -12 157 -68 177 -92 14 -18 25 -23 42 -19 25 7 34 -8 12 -17 -7 -3
-3 -6 8 -6 12 -1 35 6 50 14 16 8 43 15 61 15 17 0 33 4 35 9 5 13 201 32 212
21 6 -6 18 -10 28 -10 10 0 18 -7 18 -16 0 -14 9 -16 55 -11 32 3 53 1 49 -4
-3 -5 -11 -9 -17 -9 -13 0 -32 -15 -130 -96 -120 -100 -138 -135 -125 -244 17
-142 31 -236 40 -259 9 -25 -6 -57 -46 -97 -31 -30 -90 -103 -152 -186 -30
-40 -63 -84 -74 -96 -11 -13 -20 -27 -20 -31 0 -14 -38 -43 -48 -37 -6 4 -8
-3 -5 -15 3 -11 -3 -39 -14 -62 -12 -23 -23 -49 -26 -57 -3 -8 -6 5 -6 28 -1
36 3 45 19 49 32 9 23 37 -22 66 -27 17 -56 27 -80 27 -21 0 -38 5 -38 11 0
13 -152 2 -160 -11 -3 -5 -22 -11 -43 -15 -22 -4 -37 -13 -37 -22 0 -8 -5 -11
-10 -8 -6 3 -13 -1 -16 -9 -3 -9 -17 -16 -30 -16 -17 0 -22 -4 -18 -15 4 -9 0
-15 -10 -15 -9 0 -16 -5 -16 -10 0 -6 -13 -24 -29 -39 -29 -29 -29 -29 -8 -35
14 -3 26 0 33 9 14 19 24 19 24 0 0 -19 -58 -29 -93 -16 -16 6 -56 11 -89 11
-74 0 -138 -31 -138 -66 0 -20 -6 -23 -55 -26 l-55 -3 6 115 c3 63 9 182 12
264 l7 150 32 8 c21 6 30 13 27 22 -7 19 -46 28 -56 13 -6 -9 -8 -8 -8 3 0 13
-1 13 -10 0 -7 -10 -8 20 -4 93 5 69 3 107 -3 107 -10 0 -23 -98 -23 -178 0
-32 -4 -44 -17 -48 -10 -3 -27 -10 -39 -16 -11 -5 -66 -8 -122 -6 l-103 3 7
-30 c8 -38 -3 -28 -42 38 -17 29 -38 53 -47 55 -20 4 -37 -30 -19 -36 7 -2 12
-10 12 -18 0 -8 5 -14 10 -14 6 0 10 -5 10 -11 0 -6 7 -26 16 -45 13 -27 14
-40 5 -57 -11 -22 -11 -22 -9 3 3 26 -1 30 -28 30 -13 0 -15 -9 -12 -47 3 -47
-15 -83 -42 -83 -6 0 -10 -3 -10 -8 0 -8 -45 -33 -101 -55 -22 -9 -41 -26 -49
-43 -7 -16 -29 -42 -49 -57 -30 -24 -41 -27 -76 -21 -43 7 -111 32 -190 69
-27 13 -58 26 -67 29 -14 4 -15 10 -7 38 16 57 36 178 50 303 13 126 40 287
51 318 7 18 14 24 22 18 6 -5 27 -12 46 -16 19 -3 43 -9 53 -11 20 -6 24 22 5
29 -7 2 -9 8 -5 13 4 5 12 2 17 -6 8 -12 13 -13 29 -3 11 7 27 10 36 7 11 -5
15 1 15 20 0 15 -7 29 -15 32 -8 4 -15 14 -15 24 0 11 -11 21 -27 25 l-28 8
28 10 c15 6 27 14 27 17 0 9 -86 30 -123 30 -32 0 -32 1 -29 40 2 22 8 40 13
40 5 0 9 8 10 18 0 14 2 14 9 -3 5 -11 9 -15 9 -9 1 8 84 37 113 39 4 0 16 8
27 17 17 14 48 17 205 19 175 3 215 9 146 22 -37 8 -38 23 -5 67 14 19 25 43
25 53 0 16 -5 18 -27 13 -16 -4 -37 -7 -48 -8 -11 0 -14 -2 -7 -5 14 -6 16
-33 2 -33 -5 0 -10 -7 -10 -15 0 -16 -35 -21 -44 -6 -8 13 -76 -10 -76 -25 0
-21 34 -34 92 -35 l53 -2 -50 -7 c-39 -5 -57 -3 -82 11 -17 10 -33 15 -36 12
-3 -2 -22 1 -41 8 l-36 13 0 98 c0 96 -1 100 -27 123 -16 13 -25 26 -22 30 4
3 33 6 65 6 48 1 61 -3 76 -21 10 -12 18 -18 18 -13 0 17 -34 50 -55 55 -18 3
-17 5 8 22 22 15 34 17 59 10 17 -5 33 -15 36 -22 3 -10 -3 -10 -26 2 -62 32
-72 8 -16 -40 33 -29 38 -30 73 -21 36 10 40 15 57 69 l19 59 5 -43 c3 -30 7
-38 12 -25z m-115 25 c-3 -8 -6 -5 -6 6 -1 11 2 17 5 13 3 -3 4 -12 1 -19z
m-217 -22 c0 -12 -11 -13 -55 -9 -48 5 -55 4 -55 -12 0 -10 -3 -16 -6 -12 -3
3 -3 15 1 26 5 18 14 21 61 21 40 0 54 -4 54 -14z m2372 -90 c-3 -12 -1 -17 5
-13 6 4 13 0 17 -8 7 -19 1 -19 -29 1 -33 22 -39 42 -11 40 17 -1 22 -6 18
-20z m5125 -381 c7 -23 -13 -36 -40 -26 -39 15 -36 43 5 39 17 -2 33 -7 35
-13z m-7770 -102 c-2 -16 -4 -5 -4 22 0 28 2 40 4 28 2 -13 2 -35 0 -50z m37
34 c-4 -12 -11 -38 -15 -57 l-7 -35 -1 40 c-1 50 8 87 21 79 5 -3 6 -15 2 -27z
m-87 -39 c-2 -13 -4 -3 -4 22 0 25 2 35 4 23 2 -13 2 -33 0 -45z m127 -32 c-4
-36 -11 -66 -16 -66 -6 0 -8 6 -5 13 3 8 8 40 12 71 10 79 17 64 9 -18z m8366
-78 c0 -57 5 -255 11 -441 13 -368 14 -358 -42 -372 -28 -7 -30 -3 -66 190 -3
17 -9 35 -14 41 -5 6 -11 26 -13 45 -5 36 -51 192 -61 210 -4 5 -22 71 -41
146 -19 75 -39 142 -45 149 -5 6 -11 34 -13 60 -2 27 -1 36 1 19 8 -49 22 -59
50 -34 12 13 23 27 23 34 0 6 8 12 18 13 9 1 47 5 85 8 47 4 67 10 67 20 0 8
9 14 20 14 19 0 20 -7 20 -102z m-520 42 c0 -5 -5 -10 -11 -10 -5 0 -7 5 -4
10 3 6 8 10 11 10 2 0 4 -4 4 -10z m138 -67 l-4 -28 -8 28 c-5 15 -5 39 0 55
l8 27 4 -27 c2 -16 2 -40 0 -55z m-8054 5 c-3 -35 -9 -79 -14 -98 l-9 -35 2
43 c1 23 0 42 -3 42 -8 0 -28 69 -22 75 3 3 11 0 18 -6 10 -8 15 -5 20 15 10
43 14 30 8 -36z m8151 -73 c8 -16 25 -73 39 -125 42 -155 57 -203 72 -232 19
-40 8 -35 -40 17 -44 47 -52 51 -75 36 -10 -7 4 -26 62 -82 82 -80 76 -65 111
-254 7 -38 16 -78 21 -87 6 -15 2 -18 -23 -18 -17 0 -34 5 -37 10 -4 7 -12 7
-25 0 -10 -5 -44 -12 -76 -16 -33 -3 -80 -12 -106 -21 -49 -15 -71 -10 -97 21
-11 13 -10 35 4 118 9 57 21 112 25 123 20 46 41 158 35 184 -3 16 1 46 11 72
9 24 16 55 15 69 -6 130 3 180 32 180 16 0 18 3 9 12 -13 13 -16 75 -5 104 4
12 10 3 21 -32 8 -27 20 -62 27 -79z m-1515 95 c0 -5 -4 -10 -10 -10 -5 0 -10
5 -10 10 0 6 5 10 10 10 6 0 10 -4 10 -10z m835 0 c3 -5 15 -10 26 -10 30 0
22 -12 -33 -49 -50 -33 -52 -33 -85 -17 -18 9 -41 16 -50 16 -22 0 -83 22 -83
30 0 7 53 25 95 34 41 8 124 6 130 -4z m452 -37 c-3 -10 -5 -2 -5 17 0 19 2
27 5 18 2 -10 2 -26 0 -35z m-1287 -23 c0 -5 -4 -10 -10 -10 -5 0 -10 5 -10
10 0 6 5 10 10 10 6 0 10 -4 10 -10z m-88 -45 c0 -5 -5 -11 -11 -13 -6 -2 -11
4 -11 13 0 9 5 15 11 13 6 -2 11 -8 11 -13z m888 -15 c0 -5 -5 -10 -11 -10 -5
0 -7 5 -4 10 3 6 8 10 11 10 2 0 4 -4 4 -10z m-273 -22 c38 -14 42 -31 11 -52
-29 -20 -72 -20 -92 0 -21 20 -20 34 2 50 21 17 37 17 79 2z m-423 -103 c-4
-8 -10 -15 -15 -15 -5 0 -9 7 -9 15 0 8 7 15 15 15 9 0 12 -6 9 -15z m-5849
-449 c0 -123 -2 -224 -5 -224 -20 1 -30 -4 -30 -17 0 -8 9 -15 19 -15 24 0 33
-61 16 -103 -11 -26 -12 -24 -35 55 -13 46 -34 106 -47 135 -12 28 -23 57 -23
63 0 6 -9 28 -19 48 -11 21 -22 55 -26 75 -7 33 -4 41 24 67 17 17 31 37 31
44 0 8 6 17 13 19 9 4 9 7 -1 15 -9 6 1 8 30 8 40 -1 43 1 46 27 2 15 4 27 5
27 2 0 2 -101 2 -224z m32 157 c-3 -10 -5 -4 -5 12 0 17 2 24 5 18 2 -7 2 -21
0 -30z m-326 0 c-12 -20 -14 -14 -5 12 4 9 9 14 11 11 3 -2 0 -13 -6 -23z
m4849 -20 c0 -22 -29 -53 -51 -53 -10 0 -25 7 -33 16 -13 12 -14 18 -3 28 29
29 87 35 87 9z m-4740 -3 c0 -5 -4 -10 -9 -10 -6 0 -13 5 -16 10 -3 6 1 10 9
10 9 0 16 -4 16 -10z m7 -42 c-3 -8 -6 -5 -6 6 -1 11 2 17 5 13 3 -3 4 -12 1
-19z m4928 -37 c-15 -29 -45 -43 -45 -21 0 6 3 10 8 10 4 0 15 15 26 33 23 40
33 20 11 -22z m-4965 -31 c7 -19 39 -88 71 -153 84 -168 113 -253 121 -360 l5
-57 -36 6 c-33 6 -108 40 -121 55 -3 3 -29 14 -57 24 -61 22 -70 39 -15 29 44
-8 72 -21 72 -34 0 -6 7 -10 15 -10 8 0 15 7 15 15 0 23 -66 45 -137 45 -50 0
-72 5 -95 21 -17 12 -44 25 -60 28 -16 3 -29 10 -30 16 0 5 33 27 73 48 94 49
160 58 209 28 44 -27 59 -26 69 2 13 32 -42 130 -85 153 -18 10 -31 21 -29 24
2 4 -22 5 -53 3 -48 -3 -54 -2 -37 8 11 7 28 21 39 31 15 16 20 17 28 6 5 -8
6 -2 2 17 -3 17 -13 36 -22 43 -13 10 -13 15 -4 24 10 10 15 10 22 -2 7 -11
10 -8 10 15 0 34 11 25 30 -25z m-555 -195 c49 -9 62 -16 73 -38 7 -15 17 -27
22 -27 17 0 50 -34 50 -51 0 -9 -9 -24 -20 -34 -18 -16 -27 -17 -59 -9 -21 6
-82 9 -136 6 -80 -3 -105 -1 -136 15 -39 18 -47 35 -29 63 8 13 11 12 23 -4
20 -27 72 -10 72 25 0 20 -7 25 -42 32 -42 8 -57 29 -30 41 16 7 138 -4 212
-19z m313 -52 c-6 -8 -21 -12 -32 -9 -12 3 -38 1 -59 -3 -20 -5 -39 -5 -42 0
-8 11 51 26 102 26 36 0 41 -3 31 -14z m-40 -38 c-2 -2 -15 -1 -28 2 l-25 7
25 6 c22 6 39 -4 28 -15z m587 -19 c17 -3 39 -8 50 -10 23 -5 149 -19 185 -21
45 -3 51 -5 46 -14 -9 -14 -121 -32 -280 -46 -26 -2 -50 -6 -53 -9 -3 -2 5
-14 17 -26 20 -20 23 -20 81 -5 33 8 74 15 90 15 17 0 44 7 61 16 22 11 49 15
90 12 49 -4 61 -1 69 13 18 35 179 66 179 34 0 -8 6 -15 13 -15 15 0 59 -72
67 -109 4 -18 16 -27 48 -36 31 -10 42 -10 42 -1 0 6 5 4 10 -4 8 -12 10 -12
10 -1 0 8 3 12 6 8 12 -12 -43 -290 -56 -282 -5 3 -6 32 -3 66 5 55 4 61 -12
58 -11 -3 -19 -15 -21 -34 -6 -61 -14 -76 -33 -70 -11 3 -44 10 -74 15 -138
22 -148 29 -160 115 -25 172 -29 185 -47 185 -16 0 -18 -6 -13 -37 2 -21 9
-51 13 -68 15 -55 22 -125 11 -125 -5 0 -12 9 -16 20 -6 20 -51 37 -120 45
-22 3 -86 10 -143 16 -98 11 -102 12 -108 38 -3 14 -10 42 -15 61 -12 45 10
223 26 211 5 -5 24 -12 40 -15z m4545 -76 c6 -11 9 -20 7 -20 -2 0 -12 9 -22
20 -10 11 -13 20 -7 20 6 0 16 -9 22 -20z m-5210 -30 c0 -5 -2 -10 -4 -10 -3
0 -8 5 -11 10 -3 6 -1 10 4 10 6 0 11 -4 11 -10z m110 -10 c12 -8 11 -10 -7
-10 -13 0 -23 5 -23 10 0 13 11 13 30 0z m876 -395 c-3 -8 -1 -15 4 -15 6 0
10 8 10 18 1 15 2 15 15 -2 21 -28 20 -70 -1 -62 -9 4 -36 11 -60 17 -24 6
-44 15 -44 20 0 5 -7 9 -15 9 -8 0 -15 7 -15 15 0 12 13 15 56 15 46 0 55 -3
50 -15z m5964 -39 c0 -3 -4 -16 -9 -30 -9 -22 -12 -23 -35 -13 -26 12 -37 31
-13 21 8 -3 20 2 27 11 12 14 30 21 30 11z m-55 -66 c-11 -5 -29 -8 -40 -8
-16 0 -15 2 5 8 34 11 60 11 35 0z m-891 -489 c20 -38 17 -72 -11 -98 l-22
-21 -41 19 c-23 11 -43 26 -46 34 -3 8 9 32 28 54 40 49 71 53 92 12z m86 -41
c0 -5 -7 -7 -15 -4 -8 4 -12 10 -9 15 6 11 24 2 24 -11z m-143 -86 c-3 -3 -12
-4 -19 -1 -8 3 -5 6 6 6 11 1 17 -2 13 -5z m80 -300 c-3 -3 -12 -4 -19 -1 -8
3 -5 6 6 6 11 1 17 -2 13 -5z m103 -12 c0 -5 -3 -12 -7 -16 -9 -9 -10 -14 -12
-62 -1 -25 -5 -33 -13 -29 -7 4 2 -7 20 -23 32 -29 33 -33 23 -69 -13 -46 -14
-143 -2 -162 5 -8 16 -11 26 -8 9 4 13 11 10 17 -10 16 11 12 25 -5 11 -14 17
-11 48 20 37 36 55 45 46 21 -3 -7 2 -20 11 -29 9 -10 11 -18 5 -22 -17 -10
-11 -45 9 -53 13 -5 16 -12 10 -27 -6 -17 -8 -17 -8 -2 -1 19 -31 23 -48 6
-14 -14 -6 -37 24 -68 25 -26 24 -42 -2 -21 -8 6 -40 14 -72 17 -77 7 -102 39
-128 163 -17 83 -20 266 -4 275 6 4 8 13 5 21 -7 18 10 64 24 64 5 0 10 -4 10
-8z m25 -114 c6 -4 2 -8 -7 -8 -10 0 -18 7 -18 17 0 9 3 12 8 7 4 -5 12 -12
17 -16z m74 -145 c0 10 6 15 12 12 6 -4 21 3 35 16 40 38 38 14 -3 -29 -21
-21 -43 -48 -49 -58 -9 -16 -12 -10 -18 34 -8 60 5 97 15 42 4 -19 7 -27 8
-17z m1896 -1043 c0 -10 -12 -16 -32 -18 -24 -2 -33 1 -33 12 0 8 -6 17 -12
20 -7 3 7 4 32 3 32 -1 45 -6 45 -17z m-2025 -304 c0 -2 -7 -6 -15 -10 -8 -3
-15 -1 -15 4 0 6 7 10 15 10 8 0 15 -2 15 -4z m5 -96 c-4 -6 -11 -8 -16 -5 -5
4 -9 -4 -10 -17 0 -22 -1 -22 -8 -3 -5 12 -4 23 3 27 16 11 38 10 31 -2z m45
6 c0 -11 -19 -15 -25 -6 -3 5 1 10 9 10 9 0 16 -2 16 -4z m-25 -26 c3 -5 1
-10 -4 -10 -6 0 -11 5 -11 10 0 6 2 10 4 10 3 0 8 -4 11 -10z m300 -50 c3 -5
-1 -10 -10 -10 -9 0 -13 5 -10 10 3 6 8 10 10 10 2 0 7 -4 10 -10z m993 -2
l827 -1 -760 -8 c-757 -8 -940 -6 -929 13 3 5 13 7 21 4 8 -3 387 -7 841 -8z
m-7628 -230 c-25 -9 -190 -7 -190 2 0 4 47 7 104 6 58 0 96 -4 86 -8z m113 -5
c-13 -2 -33 -2 -45 0 -13 2 -3 4 22 4 25 0 35 -2 23 -4z m6824 -54 c17 8 22 6
31 -14 9 -19 19 -25 39 -23 49 3 199 -4 181 -9 -10 -2 -18 -8 -18 -13 0 -5
-19 -10 -42 -12 -35 -2 -43 -7 -43 -23 0 -11 5 -20 10 -21 6 0 18 -4 27 -8 23
-10 63 -4 63 11 0 24 16 26 40 3 19 -18 25 -34 25 -66 0 -25 6 -47 15 -54 8
-7 15 -23 15 -35 0 -26 23 -39 53 -29 14 4 18 2 15 -7 -4 -11 -61 -14 -304
-14 -194 -1 -306 -5 -319 -11 -39 -22 -127 -24 -570 -17 -291 5 -404 10 -321
13 86 3 131 9 133 17 2 6 -4 14 -14 17 -15 5 -107 14 -160 16 -7 0 -13 4 -13
8 0 5 30 7 68 5 95 -5 337 8 322 17 -23 14 20 18 273 25 222 7 248 9 245 24
-3 14 -26 16 -203 16 -121 0 -210 4 -225 11 -14 6 -61 12 -105 13 -147 4 -90
11 89 10 97 0 181 3 186 6 17 11 11 24 -17 39 l-28 15 33 1 c27 0 32 -4 32
-24 0 -21 5 -24 61 -30 97 -10 134 -5 61 8 -35 6 -64 16 -65 21 -3 14 72 19
97 6 12 -5 39 -11 61 -14 34 -4 43 0 65 24 31 37 40 36 40 -1 0 -25 4 -29 24
-28 31 3 27 23 -9 52 l-29 23 70 6 c44 3 74 1 83 -6 11 -9 12 -7 9 8 -3 14
-11 19 -26 18 -26 -3 -28 5 -5 23 12 8 20 9 24 2 4 -7 13 -7 26 1z m-5479 -26
c-10 -2 -26 -2 -35 0 -10 3 -2 5 17 5 19 0 27 -2 18 -5z m5135 -10 c-13 -2
-33 -2 -45 0 -13 2 -3 4 22 4 25 0 35 -2 23 -4z m144 0 c-20 -2 -52 -2 -70 0
-17 2 0 4 38 4 39 0 53 -2 32 -4z m101 0 c-10 -2 -28 -2 -40 0 -13 2 -5 4 17
4 22 1 32 -1 23 -4z m-388 -23 c0 -5 -2 -10 -4 -10 -3 0 -8 5 -11 10 -3 6 -1
10 4 10 6 0 11 -4 11 -10z m-400 -40 c0 -5 -2 -10 -4 -10 -3 0 -8 5 -11 10 -3
6 -1 10 4 10 6 0 11 -4 11 -10z m-57 -127 c-35 -2 -91 -2 -125 0 -35 2 -7 3
62 3 69 0 97 -1 63 -3z m-5905 -57 c-5 -9 44 -32 85 -40 21 -4 37 -12 37 -17
0 -6 -9 -7 -22 -2 -13 4 -86 7 -163 6 -102 -2 -133 0 -115 8 14 5 31 17 39 27
10 12 15 14 18 5 3 -7 14 -13 26 -13 18 0 19 2 7 10 -12 7 -8 10 15 11 17 0
39 4 50 8 20 9 29 7 23 -3z m115 -6 c-7 -25 -19 -34 -28 -20 -3 5 -1 10 4 10
6 0 10 3 10 8 -2 14 1 22 10 22 5 0 7 -9 4 -20z m7607 -11 c0 -5 51 -9 113
-10 61 0 135 -4 162 -8 32 -5 -24 -8 -160 -9 -215 -2 -299 4 -290 19 3 4 12 6
20 3 8 -4 28 -1 44 4 22 8 31 7 34 -1 2 -8 11 -7 28 4 24 16 49 15 49 -2z
m458 4 c-15 -2 -42 -2 -60 0 -18 2 -6 4 27 4 33 0 48 -2 33 -4z m-8111 -9 c-3
-3 -12 -4 -19 -1 -8 3 -5 6 6 6 11 1 17 -2 13 -5z m8253 -18 c8 -2 -50 -3
-130 -3 -103 0 -125 2 -75 6 66 6 172 4 205 -3z m-3155 -6 c3 -5 -3 -10 -15
-10 -12 0 -18 5 -15 10 3 6 10 10 15 10 5 0 12 -4 15 -10z m-312 -7 c-40 -2
-107 -2 -150 0 -43 1 -10 3 72 3 83 0 118 -2 78 -3z"/>
<path d="M4720 8030 c0 -29 4 -40 15 -40 11 0 15 11 15 40 0 29 -4 40 -15 40
-11 0 -15 -11 -15 -40z"/>
<path d="M4811 8062 c-6 -2 -11 -33 -11 -73 0 -76 -5 -71 75 -71 80 0 75 -5
75 75 l0 72 -64 0 c-36 0 -70 -1 -75 -3z"/>
<path d="M5612 8058 c3 -8 28 -13 71 -13 36 0 64 2 61 6 -2 4 2 10 8 12 7 3
-22 6 -65 6 -58 1 -78 -2 -75 -11z"/>
<path d="M6160 7950 c0 -33 3 -40 20 -40 17 0 20 7 20 40 0 33 -3 40 -20 40
-17 0 -20 -7 -20 -40z"/>
<path d="M5615 7930 c-4 -7 122 -7 129 0 2 3 -25 5 -60 5 -36 0 -67 -2 -69 -5z"/>
<path d="M5586 7922 c-4 -7 -2 -12 3 -12 6 0 11 -18 11 -40 l0 -40 75 0 75 0
0 40 0 40 -74 0 c-49 0 -76 4 -78 12 -3 9 -6 9 -12 0z"/>
<path d="M4163 7870 c0 -25 2 -35 4 -22 2 12 2 32 0 45 -2 12 -4 2 -4 -23z"/>
<path d="M4943 7870 c0 -25 2 -35 4 -22 2 12 2 32 0 45 -2 12 -4 2 -4 -23z"/>
<path d="M5553 7903 c-7 -3 -13 -20 -13 -39 0 -27 4 -34 20 -34 16 0 20 7 20
34 0 37 -7 46 -27 39z"/>
<path d="M7363 7770 c1 -12 8 -20 19 -20 23 0 34 20 17 31 -23 15 -38 10 -36
-11z"/>
<path d="M7935 7679 c-15 -5 -8 -8 24 -8 24 -1 42 1 39 4 -10 10 -43 12 -63 4z"/>
<path d="M7645 7640 c-8 -14 3 -30 21 -30 8 0 14 9 14 20 0 21 -24 28 -35 10z"/>
<path d="M7600 7600 c0 -5 9 -10 21 -10 11 0 17 5 14 10 -3 6 -13 10 -21 10
-8 0 -14 -4 -14 -10z"/>
<path d="M7854 7598 c-3 -5 27 -8 65 -8 39 0 71 3 71 8 0 4 -30 7 -66 7 -36 0
-68 -3 -70 -7z"/>
<path d="M6143 7583 c9 -2 23 -2 30 0 6 3 -1 5 -18 5 -16 0 -22 -2 -12 -5z"/>
<path d="M8188 7583 c7 -3 16 -2 19 1 4 3 -2 6 -13 5 -11 0 -14 -3 -6 -6z"/>
<path d="M8240 7550 c0 -22 5 -40 10 -40 6 0 10 18 10 40 0 22 -4 40 -10 40
-5 0 -10 -18 -10 -40z"/>
<path d="M6442 7543 c5 -26 38 -29 38 -4 0 15 -6 21 -21 21 -14 0 -19 -5 -17
-17z"/>
<path d="M7043 7537 c-42 -16 -52 -27 -22 -27 51 0 99 13 99 26 0 17 -33 17
-77 1z"/>
<path d="M6938 7513 c7 -3 16 -2 19 1 4 3 -2 6 -13 5 -11 0 -14 -3 -6 -6z"/>
<path d="M4003 7470 c0 -25 2 -35 4 -22 2 12 2 32 0 45 -2 12 -4 2 -4 -23z"/>
<path d="M4723 7470 c0 -25 2 -35 4 -22 2 12 2 32 0 45 -2 12 -4 2 -4 -23z"/>
<path d="M7120 7501 c0 -6 -15 -11 -34 -11 -28 0 -35 -4 -40 -26 -4 -15 -5
-29 -1 -32 3 -3 5 0 5 6 0 7 15 12 35 12 19 0 35 -5 35 -11 0 -6 7 -4 15 5 8
8 15 20 15 26 0 6 -7 18 -15 26 -8 9 -15 11 -15 5z"/>
<path d="M8000 7470 c0 -33 3 -40 19 -40 11 0 23 -4 26 -10 3 -5 13 -10 21
-10 8 0 14 5 14 10 0 6 -9 10 -20 10 -17 0 -20 7 -20 40 0 33 -3 40 -20 40
-17 0 -20 -7 -20 -40z"/>
<path d="M8173 7503 c-14 -5 -18 -33 -5 -33 5 0 17 9 27 20 18 20 8 26 -22 13z"/>
<path d="M6138 7433 c7 -3 16 -2 19 1 4 3 -2 6 -13 5 -11 0 -14 -3 -6 -6z"/>
<path d="M6858 7433 c7 -3 16 -2 19 1 4 3 -2 6 -13 5 -11 0 -14 -3 -6 -6z"/>
<path d="M8000 7390 c0 -22 7 -25 29 -11 16 10 6 31 -15 31 -8 0 -14 -9 -14
-20z"/>
<path d="M5763 7310 c0 -25 2 -35 4 -22 2 12 2 32 0 45 -2 12 -4 2 -4 -23z"/>
<path d="M5283 7230 c0 -25 2 -35 4 -22 2 12 2 32 0 45 -2 12 -4 2 -4 -23z"/>
<path d="M4900 7189 c3 -2 17 -15 33 -28 21 -19 27 -21 27 -9 0 9 -8 18 -17
22 -10 3 -25 9 -33 12 -8 4 -13 5 -10 3z"/>
<path d="M8278 7183 c6 -2 18 -2 25 0 6 3 1 5 -13 5 -14 0 -19 -2 -12 -5z"/>
<path d="M4560 7171 c0 -5 9 -7 20 -4 11 3 20 7 20 9 0 2 -9 4 -20 4 -11 0
-20 -4 -20 -9z"/>
<path d="M4648 7166 c-8 -8 -23 -16 -34 -19 -18 -4 -18 -5 -1 -6 11 0 30 8 44
19 14 11 21 20 15 20 -6 0 -17 -6 -24 -14z"/>
<path d="M8240 7154 c0 -14 3 -14 15 -4 8 7 15 14 15 16 0 2 -7 4 -15 4 -8 0
-15 -7 -15 -16z"/>
<path d="M4050 7150 c0 -5 7 -10 15 -10 8 0 15 5 15 10 0 6 -7 10 -15 10 -8 0
-15 -4 -15 -10z"/>
<path d="M4880 7146 c0 -9 5 -16 10 -16 6 0 10 4 10 9 0 6 -4 13 -10 16 -5 3
-10 -1 -10 -9z"/>
<path d="M6640 7150 c0 -5 5 -10 10 -10 6 0 10 5 10 10 0 6 -4 10 -10 10 -5 0
-10 -4 -10 -10z"/>
<path d="M4560 7144 c0 -7 27 -34 35 -34 3 0 1 9 -5 20 -10 18 -30 28 -30 14z"/>
<path d="M6573 7143 c9 -2 23 -2 30 0 6 3 -1 5 -18 5 -16 0 -22 -2 -12 -5z"/>
<path d="M2640 7125 c0 -8 4 -15 10 -15 5 0 7 7 4 15 -4 8 -8 15 -10 15 -2 0
-4 -7 -4 -15z"/>
<path d="M3920 7129 c0 -8 14 -10 40 -6 22 3 40 1 40 -4 0 -5 7 -9 15 -9 23 0
18 17 -7 24 -38 10 -88 7 -88 -5z"/>
<path d="M4715 7128 c-4 -10 -12 -18 -19 -18 -6 0 -12 -9 -13 -20 -1 -15 4
-20 22 -20 13 0 27 5 31 11 4 8 0 9 -15 4 -25 -8 -29 10 -5 23 9 5 14 15 11
23 -4 11 -6 10 -12 -3z"/>
<path d="M2700 7120 c0 -5 5 -10 10 -10 6 0 10 5 10 10 0 6 -4 10 -10 10 -5 0
-10 -4 -10 -10z"/>
<path d="M4748 7113 c7 -3 16 -2 19 1 4 3 -2 6 -13 5 -11 0 -14 -3 -6 -6z"/>
<path d="M5114 7112 c4 -7 2 -12 -3 -12 -6 0 -11 -4 -11 -10 0 -15 17 -12 23
5 4 8 1 17 -5 21 -7 4 -8 3 -4 -4z"/>
<path d="M4397 7103 c-3 -5 15 -8 39 -8 24 0 44 3 44 7 0 10 -77 10 -83 1z"/>
<path d="M4561 7094 c0 -11 3 -14 6 -6 3 7 2 16 -1 19 -3 4 -6 -2 -5 -13z"/>
<path d="M5178 7103 c7 -3 16 -2 19 1 4 3 -2 6 -13 5 -11 0 -14 -3 -6 -6z"/>
<path d="M8160 7099 c0 -5 5 -7 10 -4 6 3 10 8 10 11 0 2 -4 4 -10 4 -5 0 -10
-5 -10 -11z"/>
<path d="M4160 7090 c0 -5 5 -10 10 -10 6 0 10 5 10 10 0 6 -4 10 -10 10 -5 0
-10 -4 -10 -10z"/>
<path d="M4247 7088 c2 -5 -7 -8 -21 -8 -14 0 -27 -4 -31 -9 -7 -12 54 -3 105
14 l35 12 -47 -1 c-25 -1 -44 -4 -41 -8z"/>
<path d="M4505 7080 c3 -5 10 -10 16 -10 5 0 9 5 9 10 0 6 -7 10 -16 10 -8 0
-12 -4 -9 -10z"/>
<path d="M6632 7081 c-10 -6 -10 -10 2 -20 10 -9 16 -9 21 -1 10 16 -7 31 -23
21z"/>
<path d="M2880 7065 c0 -8 6 -15 14 -15 8 0 16 -5 18 -12 3 -8 9 -8 24 0 18
11 18 11 -3 12 -13 0 -23 4 -23 9 0 5 -7 11 -15 15 -9 3 -15 0 -15 -9z"/>
<path d="M5148 7073 c6 -2 18 -2 25 0 6 3 1 5 -13 5 -14 0 -19 -2 -12 -5z"/>
<path d="M3825 7060 c-3 -5 -1 -10 4 -10 6 0 11 5 11 10 0 6 -2 10 -4 10 -3 0
-8 -4 -11 -10z"/>
<path d="M4545 7060 c3 -5 8 -10 11 -10 2 0 4 5 4 10 0 6 -5 10 -11 10 -5 0
-7 -4 -4 -10z"/>
<path d="M6560 7060 c0 -5 5 -10 11 -10 5 0 7 5 4 10 -3 6 -8 10 -11 10 -2 0
-4 -4 -4 -10z"/>
<path d="M3368 7053 c6 -2 18 -2 25 0 6 3 1 5 -13 5 -14 0 -19 -2 -12 -5z"/>
<path d="M3110 7043 c0 -5 13 -8 30 -9 16 -1 27 3 24 7 -6 11 -54 12 -54 2z"/>
<path d="M3780 7040 c-12 -8 -11 -10 8 -10 12 0 22 5 22 10 0 13 -11 13 -30 0z"/>
<path d="M2983 7033 c15 -2 39 -2 55 0 15 2 2 4 -28 4 -30 0 -43 -2 -27 -4z"/>
<path d="M3373 7033 c9 -2 23 -2 30 0 6 3 -1 5 -18 5 -16 0 -22 -2 -12 -5z"/>
<path d="M4130 7030 l-35 -7 38 -2 c20 0 37 4 37 9 0 6 -1 9 -2 9 -2 -1 -19
-5 -38 -9z"/>
<path d="M6678 7033 c7 -3 16 -2 19 1 4 3 -2 6 -13 5 -11 0 -14 -3 -6 -6z"/>
<path d="M5250 7026 c0 -2 7 -7 16 -10 8 -3 12 -2 9 4 -6 10 -25 14 -25 6z"/>
<path d="M7840 6992 c0 -28 4 -39 15 -39 11 0 15 11 15 39 0 27 -4 38 -15 38
-11 0 -15 -11 -15 -38z"/>
<path d="M5230 7010 c8 -6 24 -15 35 -21 16 -8 15 -6 -4 10 -13 12 -28 21 -35
21 -6 0 -4 -5 4 -10z"/>
<path d="M6400 7010 c0 -5 4 -10 9 -10 6 0 13 5 16 10 3 6 -1 10 -9 10 -9 0
-16 -4 -16 -10z"/>
<path d="M8645 7000 c-3 -5 -1 -18 4 -27 9 -16 10 -14 11 10 0 28 -5 34 -15
17z"/>
<path d="M8400 6960 c0 -5 9 -10 21 -10 11 0 17 5 14 10 -3 6 -13 10 -21 10
-8 0 -14 -4 -14 -10z"/>
<path d="M8288 6953 c6 -2 18 -2 25 0 6 3 1 5 -13 5 -14 0 -19 -2 -12 -5z"/>
<path d="M4015 6940 c-19 -8 -19 -9 2 -9 12 -1 25 4 28 9 7 12 -2 12 -30 0z"/>
<path d="M8080 6910 c0 -13 5 -20 13 -17 6 2 12 10 12 17 0 7 -6 15 -12 18 -8
2 -13 -5 -13 -18z"/>
<path d="M8560 6910 c0 -5 5 -10 10 -10 6 0 10 5 10 10 0 6 -4 10 -10 10 -5 0
-10 -4 -10 -10z"/>
<path d="M8135 6880 c-3 -5 3 -10 15 -10 12 0 18 5 15 10 -3 6 -10 10 -15 10
-5 0 -12 -4 -15 -10z"/>
<path d="M8620 6871 c0 -6 4 -11 9 -11 5 0 12 -12 14 -27 4 -22 4 -20 3 6 0
19 -7 36 -13 39 -7 2 -13 -1 -13 -7z"/>
<path d="M4005 6850 c-10 -11 -16 -22 -13 -25 3 -3 13 4 23 15 10 11 16 22 13
25 -3 3 -13 -4 -23 -15z"/>
<path d="M5480 6855 c-14 -8 -20 -14 -15 -14 6 0 21 6 35 14 14 8 21 14 15 14
-5 0 -21 -6 -35 -14z"/>
<path d="M5502 6834 c-7 -8 -8 -14 -3 -14 10 0 25 19 20 25 -2 1 -10 -3 -17
-11z"/>
<path d="M8560 6830 c0 -5 5 -10 10 -10 6 0 10 5 10 10 0 6 -4 10 -10 10 -5 0
-10 -4 -10 -10z"/>
<path d="M3940 6780 c0 -5 7 -7 15 -4 8 4 15 8 15 10 0 2 -7 4 -15 4 -8 0 -15
-4 -15 -10z"/>
<path d="M5584 6782 c-6 -4 -4 -13 8 -24 10 -10 18 -14 18 -9 0 6 -5 13 -10
16 -6 4 -8 11 -5 16 7 11 4 11 -11 1z"/>
<path d="M5655 6770 c3 -5 10 -10 16 -10 5 0 9 5 9 10 0 6 -7 10 -16 10 -8 0
-12 -4 -9 -10z"/>
<path d="M3890 6756 c0 -2 7 -6 15 -10 8 -3 15 -1 15 4 0 6 -7 10 -15 10 -8 0
-15 -2 -15 -4z"/>
<path d="M5645 6740 c3 -5 10 -10 16 -10 5 0 9 5 9 10 0 6 -7 10 -16 10 -8 0
-12 -4 -9 -10z"/>
<path d="M3845 6730 c3 -5 13 -10 21 -10 8 0 14 5 14 10 0 6 -9 10 -21 10 -11
0 -17 -4 -14 -10z"/>
<path d="M3830 6700 c0 -13 11 -13 30 0 12 8 11 10 -7 10 -13 0 -23 -4 -23
-10z"/>
<path d="M3800 6670 c0 -5 5 -10 10 -10 6 0 10 5 10 10 0 6 -4 10 -10 10 -5 0
-10 -4 -10 -10z"/>
<path d="M3770 6660 c0 -5 5 -10 11 -10 5 0 7 5 4 10 -3 6 -8 10 -11 10 -2 0
-4 -4 -4 -10z"/>
<path d="M5745 6650 c3 -5 8 -10 11 -10 2 0 4 5 4 10 0 6 -5 10 -11 10 -5 0
-7 -4 -4 -10z"/>
<path d="M3764 6615 c-4 -14 -4 -29 0 -32 3 -4 6 3 6 15 0 12 5 22 10 22 6 0
10 5 10 10 0 21 -20 9 -26 -15z"/>
<path d="M3000 6521 c0 -5 9 -7 20 -4 11 3 20 7 20 9 0 2 -9 4 -20 4 -11 0
-20 -4 -20 -9z"/>
<path d="M3770 6505 c0 -15 18 -40 24 -34 3 3 -1 14 -9 25 -8 10 -14 15 -15 9z"/>
<path d="M2793 6446 c-15 -13 -25 -28 -21 -31 12 -12 98 -7 111 7 43 46 43 48
-11 48 -39 0 -57 -5 -79 -24z"/>
<path d="M8571 6454 c0 -11 3 -14 6 -6 3 7 2 16 -1 19 -3 4 -6 -2 -5 -13z"/>
<path d="M8602 6450 c0 -14 2 -19 5 -12 2 6 2 18 0 25 -3 6 -5 1 -5 -13z"/>
<path d="M2745 6410 c-3 -5 -1 -10 4 -10 6 0 11 5 11 10 0 6 -2 10 -4 10 -3 0
-8 -4 -11 -10z"/>
<path d="M3801 6374 c0 -11 3 -14 6 -6 3 7 2 16 -1 19 -3 4 -6 -2 -5 -13z"/>
<path d="M5902 6350 c0 -14 2 -19 5 -12 2 6 2 18 0 25 -3 6 -5 1 -5 -13z"/>
<path d="M3791 6324 c0 -11 3 -14 6 -6 3 7 2 16 -1 19 -3 4 -6 -2 -5 -13z"/>
<path d="M8594 6305 c-3 -8 -4 -20 -2 -27 3 -7 7 -1 10 15 6 29 1 36 -8 12z"/>
<path d="M3755 6300 c4 -6 11 -8 16 -5 14 9 11 15 -7 15 -8 0 -12 -5 -9 -10z"/>
<path d="M3658 6293 c7 -3 16 -2 19 1 4 3 -2 6 -13 5 -11 0 -14 -3 -6 -6z"/>
<path d="M5928 6273 c7 -3 16 -2 19 1 4 3 -2 6 -13 5 -11 0 -14 -3 -6 -6z"/>
<path d="M3615 6220 c3 -5 8 -10 11 -10 2 0 4 5 4 10 0 6 -5 10 -11 10 -5 0
-7 -4 -4 -10z"/>
<path d="M6297 6210 c3 -11 7 -20 9 -20 2 0 4 9 4 20 0 11 -4 20 -9 20 -5 0
-7 -9 -4 -20z"/>
<path d="M8582 6210 c0 -14 2 -19 5 -12 2 6 2 18 0 25 -3 6 -5 1 -5 -13z"/>
<path d="M6030 6196 c0 -2 7 -6 15 -10 8 -3 15 -1 15 4 0 6 -7 10 -15 10 -8 0
-15 -2 -15 -4z"/>
<path d="M6271 6184 c0 -11 3 -14 6 -6 3 7 2 16 -1 19 -3 4 -6 -2 -5 -13z"/>
<path d="M5952 6124 c2 -56 2 -57 5 -12 3 39 7 46 21 41 18 -7 17 -5 -10 16
-17 12 -18 9 -16 -45z"/>
<path d="M3728 6153 c6 -2 18 -2 25 0 6 3 1 5 -13 5 -14 0 -19 -2 -12 -5z"/>
<path d="M3851 6088 c-1 -29 5 -33 28 -19 9 6 10 11 2 15 -6 4 -11 1 -12 -6
-1 -7 -5 -2 -9 12 l-8 25 -1 -27z"/>
<path d="M6168 6093 c7 -3 16 -2 19 1 4 3 -2 6 -13 5 -11 0 -14 -3 -6 -6z"/>
<path d="M6013 6073 c9 -2 23 -2 30 0 6 3 -1 5 -18 5 -16 0 -22 -2 -12 -5z"/>
<path d="M3835 6041 c-3 -5 -1 -12 5 -16 5 -3 10 1 10 9 0 18 -6 21 -15 7z"/>
<path d="M3798 5953 c6 -2 18 -2 25 0 6 3 1 5 -13 5 -14 0 -19 -2 -12 -5z"/>
<path d="M3670 5901 c0 -10 19 -25 25 -20 1 2 -3 10 -11 17 -8 7 -14 8 -14 3z"/>
<path d="M5598 5528 c6 -6 18 -8 28 -6 14 3 12 5 -9 10 -19 3 -25 2 -19 -4z"/>
<path d="M5426 5507 c3 -10 9 -15 12 -12 3 3 0 11 -7 18 -10 9 -11 8 -5 -6z"/>
<path d="M6204 4155 c-18 -14 -18 -14 4 -8 12 3 22 9 22 14 0 12 -3 11 -26 -6z"/>
<path d="M6245 4155 c23 -8 83 -10 79 -3 -3 4 -24 8 -47 7 -23 0 -37 -2 -32
-4z"/>
<path d="M6210 4133 c0 -5 33 -25 73 -45 39 -21 84 -49 99 -63 31 -29 38 -31
38 -10 0 13 -80 71 -120 87 -8 3 -32 13 -52 22 -21 9 -38 13 -38 9z"/>
<path d="M6190 4088 c0 -7 27 -33 59 -57 32 -24 71 -57 86 -72 15 -16 34 -29
43 -29 16 0 -104 120 -120 120 -3 0 -20 12 -37 26 -20 16 -31 21 -31 12z"/>
<path d="M6108 3915 c17 -14 33 -25 38 -25 4 0 -3 11 -16 25 -13 14 -30 25
-38 25 -7 0 0 -11 16 -25z"/>
<path d="M7760 3529 c0 -5 5 -7 10 -4 6 3 10 8 10 11 0 2 -4 4 -10 4 -5 0 -10
-5 -10 -11z"/>
<path d="M4320 7020 c0 -12 8 -12 35 0 18 8 17 9 -7 9 -16 1 -28 -3 -28 -9z"/>
<path d="M4248 7003 c6 -2 18 -2 25 0 6 3 1 5 -13 5 -14 0 -19 -2 -12 -5z"/>
<path d="M4200 6990 c0 -5 4 -10 9 -10 6 0 13 5 16 10 3 6 -1 10 -9 10 -9 0
-16 -4 -16 -10z"/>
<path d="M5644 6565 c26 -20 42 -19 22 0 -8 8 -21 15 -28 15 -8 -1 -6 -6 6
-15z"/>
<path d="M5650 6530 c0 -5 5 -10 10 -10 6 0 10 5 10 10 0 6 -4 10 -10 10 -5 0
-10 -4 -10 -10z"/>
<path d="M5730 6453 c1 -12 29 -47 34 -42 7 7 -13 49 -24 49 -5 0 -10 -3 -10
-7z"/>
<path d="M400 6020 c0 -5 5 -10 11 -10 5 0 7 5 4 10 -3 6 -8 10 -11 10 -2 0
-4 -4 -4 -10z"/>
<path d="M3370 5670 c8 -5 22 -9 30 -9 10 0 8 3 -5 9 -27 12 -43 12 -25 0z"/>
<path d="M915 5530 c-3 -5 -2 -10 4 -10 5 0 13 5 16 10 3 6 2 10 -4 10 -5 0
-13 -4 -16 -10z"/>
<path d="M1360 5472 c0 -4 18 -6 40 -4 22 2 40 6 40 8 0 2 -18 4 -40 4 -22 0
-40 -3 -40 -8z"/>
<path d="M888 5413 c7 -3 16 -2 19 1 4 3 -2 6 -13 5 -11 0 -14 -3 -6 -6z"/>
<path d="M2250 5080 c-20 -12 -8 -21 42 -33 61 -14 268 -21 268 -8 0 6 -15 12
-32 15 -18 2 -67 9 -108 16 -107 17 -154 20 -170 10z"/>
<path d="M880 5014 c0 -20 50 -43 90 -43 48 0 45 3 -42 32 -27 9 -48 14 -48
11z"/>
<path d="M1375 4900 c3 -5 8 -10 11 -10 2 0 4 5 4 10 0 6 -5 10 -11 10 -5 0
-7 -4 -4 -10z"/>
<path d="M1400 4840 c0 -13 5 -20 13 -17 6 2 12 10 12 17 0 7 -6 15 -12 18 -8
2 -13 -5 -13 -18z"/>
<path d="M1520 4570 c0 -17 -7 -20 -40 -20 l-40 0 0 -40 0 -40 80 0 c76 0 80
1 82 23 2 36 3 41 11 54 5 9 -3 10 -30 6 -21 -3 -35 -2 -31 2 9 9 -9 35 -23
35 -5 0 -9 -9 -9 -20z"/>
<path d="M1440 4415 c0 -22 4 -25 40 -25 36 0 40 3 40 25 0 23 -4 25 -40 25
-36 0 -40 -2 -40 -25z"/>
<path d="M8698 4863 c7 -3 16 -2 19 1 4 3 -2 6 -13 5 -11 0 -14 -3 -6 -6z"/>
<path d="M8902 4650 c0 -14 2 -19 5 -12 2 6 2 18 0 25 -3 6 -5 1 -5 -13z"/>
<path d="M8785 4549 c-4 -6 -5 -12 -2 -15 2 -3 7 2 10 11 7 17 1 20 -8 4z"/>
<path d="M8874 4178 c0 -21 5 -33 10 -28 4 4 4 21 -2 37 -10 28 -10 28 -8 -9z"/>
<path d="M8661 4645 c1 -19 18 -51 18 -35 0 8 -4 22 -9 30 -5 8 -9 11 -9 5z"/>
<path d="M8542 4450 c0 -14 2 -19 5 -12 2 6 2 18 0 25 -3 6 -5 1 -5 -13z"/>
<path d="M8731 4254 c0 -11 3 -14 6 -6 3 7 2 16 -1 19 -3 4 -6 -2 -5 -13z"/>
<path d="M8466 4153 c-6 -14 -5 -15 5 -6 7 7 10 15 7 18 -3 3 -9 -2 -12 -12z"/>
<path d="M8648 4123 c7 -3 16 -2 19 1 4 3 -2 6 -13 5 -11 0 -14 -3 -6 -6z"/>
<path d="M1246 4294 c-11 -28 -6 -38 9 -18 8 10 15 22 15 27 0 13 -18 7 -24
-9z"/>
<path d="M5900 4381 c0 -6 5 -13 10 -16 6 -3 10 1 10 9 0 9 -4 16 -10 16 -5 0
-10 -4 -10 -9z"/>
<path d="M1130 4248 c0 -10 5 -18 11 -18 5 0 8 -4 4 -9 -3 -5 -1 -12 5 -16 15
-9 12 18 -5 41 -13 17 -14 17 -15 2z"/>
<path d="M6901 2134 c0 -11 3 -14 6 -6 3 7 2 16 -1 19 -3 4 -6 -2 -5 -13z"/>
<path d="M7517 308 c-5 -18 -9 -20 -19 -10 -18 18 -33 15 -17 -4 15 -19 21
-47 8 -38 -5 3 -9 -2 -9 -11 0 -12 10 -15 44 -13 24 2 42 6 39 11 -2 4 0 7 6
7 6 0 7 8 4 18 -6 15 -5 15 10 3 9 -7 17 -20 17 -27 0 -8 10 -14 23 -13 12 0
16 3 8 6 -10 4 -10 7 -1 13 8 5 7 12 -5 24 -13 13 -28 16 -64 11 -25 -3 -39
-2 -31 2 18 9 20 35 4 40 -6 2 -14 -6 -17 -19z"/>
<path d="M7235 220 c-3 -5 1 -10 9 -10 9 0 16 5 16 10 0 6 -4 10 -9 10 -6 0
-13 -4 -16 -10z"/>
<path d="M7041 206 c2 -2 29 -6 59 -9 34 -3 47 -2 35 3 -19 8 -103 14 -94 6z"/>
<path d="M7208 193 c7 -3 16 -2 19 1 4 3 -2 6 -13 5 -11 0 -14 -3 -6 -6z"/>
<path d="M7048 113 c7 -3 16 -2 19 1 4 3 -2 6 -13 5 -11 0 -14 -3 -6 -6z"/>
<path d="M7223 113 c9 -2 23 -2 30 0 6 3 -1 5 -18 5 -16 0 -22 -2 -12 -5z"/>
<path d="M6898 103 c12 -2 32 -2 45 0 12 2 2 4 -23 4 -25 0 -35 -2 -22 -4z"/>
<path d="M7233 93 c9 -2 25 -2 35 0 9 3 1 5 -18 5 -19 0 -27 -2 -17 -5z"/>
<path d="M6683 83 c64 -7 40 -22 -40 -25 -43 -2 46 -3 197 -3 151 0 203 1 115
3 -96 1 -154 6 -146 11 10 7 8 9 -10 9 -13 -1 -53 1 -89 4 -36 3 -48 3 -27 1z"/>
<path d="M6920 79 l-45 -6 58 -1 c31 -1 57 2 57 6 0 10 -7 10 -70 1z"/>
<path d="M6578 73 c12 -2 30 -2 40 0 9 3 -1 5 -23 4 -22 0 -30 -2 -17 -4z"/>
<path d="M7048 73 c6 -2 18 -2 25 0 6 3 1 5 -13 5 -14 0 -19 -2 -12 -5z"/>
<path d="M7488 63 c6 -2 18 -2 25 0 6 3 1 5 -13 5 -14 0 -19 -2 -12 -5z"/>
<path d="M6900 40 l-305 -5 300 -2 c165 0 311 3 325 7 18 6 19 8 5 7 -11 -1
-157 -4 -325 -7z"/>
<path d="M648 43 c6 -2 18 -2 25 0 6 3 1 5 -13 5 -14 0 -19 -2 -12 -5z"/>
<path d="M9578 7193 c7 -3 16 -2 19 1 4 3 -2 6 -13 5 -11 0 -14 -3 -6 -6z"/>
<path d="M9281 7073 c-1 -32 3 -43 14 -43 8 0 15 9 15 21 0 11 -4 18 -9 14 -5
-3 -12 7 -14 22 -3 20 -4 16 -6 -14z"/>
<path d="M8712 6930 c0 -14 2 -19 5 -12 2 6 2 18 0 25 -3 6 -5 1 -5 -13z"/>
<path d="M9022 6700 c0 -19 2 -27 5 -17 2 9 2 25 0 35 -3 9 -5 1 -5 -18z"/>
<path d="M9001 6644 c0 -11 3 -14 6 -6 3 7 2 16 -1 19 -3 4 -6 -2 -5 -13z"/>
<path d="M8693 6590 c0 -25 2 -35 4 -22 2 12 2 32 0 45 -2 12 -4 2 -4 -23z"/>
<path d="M8898 6543 c7 -3 16 -2 19 1 4 3 -2 6 -13 5 -11 0 -14 -3 -6 -6z"/>
<path d="M9032 6490 c0 -14 2 -19 5 -12 2 6 2 18 0 25 -3 6 -5 1 -5 -13z"/>
<path d="M9163 6362 c-35 -2 -43 -7 -43 -23 0 -17 7 -19 93 -19 89 1 172 21
137 33 -22 8 -138 13 -187 9z"/>
<path d="M8851 6334 c0 -11 3 -14 6 -6 3 7 2 16 -1 19 -3 4 -6 -2 -5 -13z"/>
<path d="M8820 6320 c0 -5 5 -10 10 -10 6 0 10 5 10 10 0 6 -4 10 -10 10 -5 0
-10 -4 -10 -10z"/>
<path d="M8865 6290 c3 -5 8 -10 11 -10 2 0 4 5 4 10 0 6 -5 10 -11 10 -5 0
-7 -4 -4 -10z"/>
<path d="M9036 6288 c2 -4 0 -9 -6 -13 -5 -3 -10 -11 -10 -17 0 -7 16 -8 48
-3 50 7 87 23 78 33 -9 8 -115 8 -110 0z"/>
<path d="M9030 6230 c-11 -7 -5 -8 20 -4 43 8 51 14 19 14 -13 0 -31 -5 -39
-10z"/>
<path d="M0 4671 c0 -38 0 -38 45 -43 25 -3 66 -3 91 0 l47 5 -59 28 c-33 16
-67 28 -76 29 -9 0 -20 5 -23 10 -13 22 -25 8 -25 -29z"/>
<path d="M9531 4454 c0 -11 3 -14 6 -6 3 7 2 16 -1 19 -3 4 -6 -2 -5 -13z"/>
<path d="M8993 4350 c0 -25 2 -35 4 -22 2 12 2 32 0 45 -2 12 -4 2 -4 -23z"/>
<path d="M8991 4274 c0 -11 3 -14 6 -6 3 7 2 16 -1 19 -3 4 -6 -2 -5 -13z"/>
</g>
</svg>
